<svg width="77" height="15" viewBox="0 0 77 15" fill="none" xmlns="http://www.w3.org/2000/svg">
<path opacity="0.5" d="M24.456 3.32V2.324H26.712V11H25.608V3.32H24.456ZM28.8878 6.572C28.8878 5.196 29.1118 4.124 29.5598 3.356C30.0078 2.58 30.7918 2.192 31.9118 2.192C33.0238 2.192 33.8038 2.58 34.2518 3.356C34.6998 4.124 34.9238 5.196 34.9238 6.572C34.9238 7.972 34.6998 9.06 34.2518 9.836C33.8038 10.612 33.0238 11 31.9118 11C30.7918 11 30.0078 10.612 29.5598 9.836C29.1118 9.06 28.8878 7.972 28.8878 6.572ZM33.8438 6.572C33.8438 5.876 33.7958 5.288 33.6998 4.808C33.6118 4.32 33.4238 3.928 33.1358 3.632C32.8558 3.336 32.4478 3.188 31.9118 3.188C31.3678 3.188 30.9518 3.336 30.6638 3.632C30.3838 3.928 30.1958 4.32 30.0998 4.808C30.0118 5.288 29.9678 5.876 29.9678 6.572C29.9678 7.292 30.0118 7.896 30.0998 8.384C30.1958 8.872 30.3838 9.264 30.6638 9.56C30.9518 9.856 31.3678 10.004 31.9118 10.004C32.4478 10.004 32.8558 9.856 33.1358 9.56C33.4238 9.264 33.6118 8.872 33.6998 8.384C33.7958 7.896 33.8438 7.292 33.8438 6.572ZM37.2509 11.072C37.0429 11.072 36.8669 11 36.7229 10.856C36.5789 10.712 36.5069 10.536 36.5069 10.328C36.5069 10.12 36.5789 9.944 36.7229 9.8C36.8669 9.656 37.0429 9.584 37.2509 9.584C37.4509 9.584 37.6189 9.656 37.7549 9.8C37.8989 9.944 37.9709 10.12 37.9709 10.328C37.9709 10.536 37.8989 10.712 37.7549 10.856C37.6189 11 37.4509 11.072 37.2509 11.072ZM37.2509 5.936C37.0429 5.936 36.8669 5.864 36.7229 5.72C36.5789 5.576 36.5069 5.4 36.5069 5.192C36.5069 4.984 36.5789 4.808 36.7229 4.664C36.8669 4.52 37.0429 4.448 37.2509 4.448C37.4509 4.448 37.6189 4.52 37.7549 4.664C37.8989 4.808 37.9709 4.984 37.9709 5.192C37.9709 5.4 37.8989 5.576 37.7549 5.72C37.6189 5.864 37.4509 5.936 37.2509 5.936ZM39.5776 6.572C39.5776 5.196 39.8016 4.124 40.2496 3.356C40.6976 2.58 41.4816 2.192 42.6016 2.192C43.7136 2.192 44.4936 2.58 44.9416 3.356C45.3896 4.124 45.6136 5.196 45.6136 6.572C45.6136 7.972 45.3896 9.06 44.9416 9.836C44.4936 10.612 43.7136 11 42.6016 11C41.4816 11 40.6976 10.612 40.2496 9.836C39.8016 9.06 39.5776 7.972 39.5776 6.572ZM44.5336 6.572C44.5336 5.876 44.4856 5.288 44.3896 4.808C44.3016 4.32 44.1136 3.928 43.8256 3.632C43.5456 3.336 43.1376 3.188 42.6016 3.188C42.0576 3.188 41.6416 3.336 41.3536 3.632C41.0736 3.928 40.8856 4.32 40.7896 4.808C40.7016 5.288 40.6576 5.876 40.6576 6.572C40.6576 7.292 40.7016 7.896 40.7896 8.384C40.8856 8.872 41.0736 9.264 41.3536 9.56C41.6416 9.856 42.0576 10.004 42.6016 10.004C43.1376 10.004 43.5456 9.856 43.8256 9.56C44.1136 9.264 44.3016 8.872 44.3896 8.384C44.4856 7.896 44.5336 7.292 44.5336 6.572ZM47.4128 6.572C47.4128 5.196 47.6368 4.124 48.0848 3.356C48.5328 2.58 49.3168 2.192 50.4368 2.192C51.5488 2.192 52.3288 2.58 52.7768 3.356C53.2248 4.124 53.4488 5.196 53.4488 6.572C53.4488 7.972 53.2248 9.06 52.7768 9.836C52.3288 10.612 51.5488 11 50.4368 11C49.3168 11 48.5328 10.612 48.0848 9.836C47.6368 9.06 47.4128 7.972 47.4128 6.572ZM52.3688 6.572C52.3688 5.876 52.3208 5.288 52.2248 4.808C52.1368 4.32 51.9488 3.928 51.6608 3.632C51.3808 3.336 50.9728 3.188 50.4368 3.188C49.8928 3.188 49.4768 3.336 49.1888 3.632C48.9088 3.928 48.7208 4.32 48.6248 4.808C48.5368 5.288 48.4928 5.876 48.4928 6.572C48.4928 7.292 48.5368 7.896 48.6248 8.384C48.7208 8.872 48.9088 9.264 49.1888 9.56C49.4768 9.856 49.8928 10.004 50.4368 10.004C50.9728 10.004 51.3808 9.856 51.6608 9.56C51.9488 9.264 52.1368 8.872 52.2248 8.384C52.3208 7.896 52.3688 7.292 52.3688 6.572ZM63.8711 9.14H60.2231L59.5511 11H58.3991L61.4231 2.684H62.6831L65.6951 11H64.5431L63.8711 9.14ZM63.5591 8.252L62.0471 4.028L60.5351 8.252H63.5591ZM75.7971 2.696V11H74.7051V4.808L71.9451 11H71.1771L68.4051 4.796V11H67.3131V2.696H68.4891L71.5611 9.56L74.6331 2.696H75.7971Z" fill="#121212"></path>
<g clip-path="url(#clip0_710_303)">
<path d="M15 7.5C15 9.48912 14.2098 11.3968 12.8033 12.8033C11.3968 14.2098 9.48912 15 7.5 15C5.51088 15 3.60322 14.2098 2.1967 12.8033C0.790176 11.3968 0 9.48912 0 7.5C0 5.51088 0.790176 3.60322 2.1967 2.1967C3.60322 0.790176 5.51088 0 7.5 0C9.48912 0 11.3968 0.790176 12.8033 2.1967C14.2098 3.60322 15 5.51088 15 7.5ZM7.5 3.28125C7.5 3.15693 7.45061 3.0377 7.36271 2.94979C7.2748 2.86189 7.15557 2.8125 7.03125 2.8125C6.90693 2.8125 6.7877 2.86189 6.69979 2.94979C6.61189 3.0377 6.5625 3.15693 6.5625 3.28125V8.4375C6.56253 8.52012 6.58439 8.60127 6.62588 8.67273C6.66737 8.74418 6.72701 8.80339 6.79875 8.84437L10.08 10.7194C10.1877 10.7776 10.3139 10.7913 10.4315 10.7577C10.5492 10.7241 10.6491 10.6458 10.7099 10.5396C10.7706 10.4333 10.7873 10.3075 10.7565 10.189C10.7257 10.0706 10.6498 9.96885 10.545 9.90563L7.5 8.16562V3.28125Z" fill="#C4CAD3"></path>
</g>
<defs>
<clipPath id="clip0_710_303">
<rect width="15" height="15" fill="white"></rect>
</clipPath>
</defs>
</svg>