<svg width="144" height="24" viewBox="0 0 144 24" fill="none" xmlns="http://www.w3.org/2000/svg">
<path opacity="0.5" d="M32.528 6.636C33.44 6.636 34.228 6.808 34.892 7.152C35.564 7.488 36.076 7.972 36.428 8.604C36.788 9.236 36.968 9.98 36.968 10.836C36.968 11.692 36.788 12.436 36.428 13.068C36.076 13.692 35.564 14.172 34.892 14.508C34.228 14.836 33.44 15 32.528 15H29.924V6.636H32.528ZM32.528 14.1C33.608 14.1 34.432 13.816 35 13.248C35.568 12.672 35.852 11.868 35.852 10.836C35.852 9.796 35.564 8.984 34.988 8.4C34.42 7.816 33.6 7.524 32.528 7.524H31.016V14.1H32.528ZM44.5404 8.424V15H43.4484V14.028C43.2404 14.364 42.9484 14.628 42.5724 14.82C42.2044 15.004 41.7964 15.096 41.3484 15.096C40.8364 15.096 40.3764 14.992 39.9684 14.784C39.5604 14.568 39.2364 14.248 38.9964 13.824C38.7644 13.4 38.6484 12.884 38.6484 12.276V8.424H39.7284V12.132C39.7284 12.78 39.8924 13.28 40.2204 13.632C40.5484 13.976 40.9964 14.148 41.5644 14.148C42.1484 14.148 42.6084 13.968 42.9444 13.608C43.2804 13.248 43.4484 12.724 43.4484 12.036V8.424H44.5404ZM52.6842 11.46C52.6842 11.668 52.6722 11.888 52.6482 12.12H47.3922C47.4322 12.768 47.6522 13.276 48.0522 13.644C48.4602 14.004 48.9522 14.184 49.5282 14.184C50.0002 14.184 50.3922 14.076 50.7042 13.86C51.0242 13.636 51.2482 13.34 51.3762 12.972H52.5522C52.3762 13.604 52.0242 14.12 51.4962 14.52C50.9682 14.912 50.3122 15.108 49.5282 15.108C48.9042 15.108 48.3442 14.968 47.8482 14.688C47.3602 14.408 46.9762 14.012 46.6962 13.5C46.4162 12.98 46.2762 12.38 46.2762 11.7C46.2762 11.02 46.4122 10.424 46.6842 9.912C46.9562 9.4 47.3362 9.008 47.8242 8.736C48.3202 8.456 48.8882 8.316 49.5282 8.316C50.1522 8.316 50.7042 8.452 51.1842 8.724C51.6642 8.996 52.0322 9.372 52.2882 9.852C52.5522 10.324 52.6842 10.86 52.6842 11.46ZM51.5562 11.232C51.5562 10.816 51.4642 10.46 51.2802 10.164C51.0962 9.86 50.8442 9.632 50.5242 9.48C50.2122 9.32 49.8642 9.24 49.4802 9.24C48.9282 9.24 48.4562 9.416 48.0642 9.768C47.6802 10.12 47.4602 10.608 47.4042 11.232H51.5562ZM59.2568 9.324V13.2C59.2568 13.52 59.3248 13.748 59.4608 13.884C59.5968 14.012 59.8328 14.076 60.1688 14.076H60.9728V15H59.9888C59.3808 15 58.9248 14.86 58.6208 14.58C58.3168 14.3 58.1648 13.84 58.1648 13.2V9.324H57.3128V8.424H58.1648V6.768H59.2568V8.424H60.9728V9.324H59.2568ZM65.4639 15.108C64.8479 15.108 64.2879 14.968 63.7839 14.688C63.2879 14.408 62.8959 14.012 62.6079 13.5C62.3279 12.98 62.1879 12.38 62.1879 11.7C62.1879 11.028 62.3319 10.436 62.6199 9.924C62.9159 9.404 63.3159 9.008 63.8199 8.736C64.3239 8.456 64.8879 8.316 65.5119 8.316C66.1359 8.316 66.6999 8.456 67.2039 8.736C67.7079 9.008 68.1039 9.4 68.3919 9.912C68.6879 10.424 68.8359 11.02 68.8359 11.7C68.8359 12.38 68.6839 12.98 68.3799 13.5C68.0839 14.012 67.6799 14.408 67.1679 14.688C66.6559 14.968 66.0879 15.108 65.4639 15.108ZM65.4639 14.148C65.8559 14.148 66.2239 14.056 66.5679 13.872C66.9119 13.688 67.1879 13.412 67.3959 13.044C67.6119 12.676 67.7199 12.228 67.7199 11.7C67.7199 11.172 67.6159 10.724 67.4079 10.356C67.1999 9.988 66.9279 9.716 66.5919 9.54C66.2559 9.356 65.8919 9.264 65.4999 9.264C65.0999 9.264 64.7319 9.356 64.3959 9.54C64.0679 9.716 63.8039 9.988 63.6039 10.356C63.4039 10.724 63.3039 11.172 63.3039 11.7C63.3039 12.236 63.3999 12.688 63.5919 13.056C63.7919 13.424 64.0559 13.7 64.3839 13.884C64.7119 14.06 65.0719 14.148 65.4639 14.148ZM73.6029 7.32V6.324H75.8589V15H74.7549V7.32H73.6029ZM83.5666 7.272H79.3546V10.008C79.5386 9.752 79.8106 9.544 80.1706 9.384C80.5306 9.216 80.9186 9.132 81.3346 9.132C81.9986 9.132 82.5386 9.272 82.9546 9.552C83.3706 9.824 83.6666 10.18 83.8426 10.62C84.0266 11.052 84.1186 11.512 84.1186 12C84.1186 12.576 84.0106 13.092 83.7946 13.548C83.5786 14.004 83.2466 14.364 82.7986 14.628C82.3586 14.892 81.8106 15.024 81.1546 15.024C80.3146 15.024 79.6346 14.808 79.1146 14.376C78.5946 13.944 78.2786 13.368 78.1666 12.648H79.2346C79.3386 13.104 79.5586 13.46 79.8946 13.716C80.2306 13.972 80.6546 14.1 81.1666 14.1C81.7986 14.1 82.2746 13.912 82.5946 13.536C82.9146 13.152 83.0746 12.648 83.0746 12.024C83.0746 11.4 82.9146 10.92 82.5946 10.584C82.2746 10.24 81.8026 10.068 81.1786 10.068C80.7546 10.068 80.3826 10.172 80.0626 10.38C79.7506 10.58 79.5226 10.856 79.3786 11.208H78.3466V6.312H83.5666V7.272ZM93.761 6.636V12.816C93.761 13.504 93.549 14.056 93.125 14.472C92.701 14.88 92.141 15.084 91.445 15.084C90.741 15.084 90.177 14.876 89.753 14.46C89.329 14.036 89.117 13.46 89.117 12.732H90.209C90.217 13.14 90.321 13.472 90.521 13.728C90.729 13.984 91.037 14.112 91.445 14.112C91.853 14.112 92.157 13.992 92.357 13.752C92.557 13.504 92.657 13.192 92.657 12.816V6.636H93.761ZM102.044 8.424V15H100.952V14.028C100.744 14.364 100.452 14.628 100.076 14.82C99.7083 15.004 99.3003 15.096 98.8523 15.096C98.3403 15.096 97.8803 14.992 97.4723 14.784C97.0643 14.568 96.7403 14.248 96.5003 13.824C96.2683 13.4 96.1523 12.884 96.1523 12.276V8.424H97.2323V12.132C97.2323 12.78 97.3963 13.28 97.7243 13.632C98.0523 13.976 98.5003 14.148 99.0683 14.148C99.6523 14.148 100.112 13.968 100.448 13.608C100.784 13.248 100.952 12.724 100.952 12.036V8.424H102.044ZM105.28 6.12V15H104.188V6.12H105.28ZM113.105 8.424L109.145 18.096H108.017L109.313 14.928L106.661 8.424H107.873L109.937 13.752L111.977 8.424H113.105ZM117.69 14.124C118.706 13.308 119.502 12.64 120.078 12.12C120.654 11.592 121.138 11.044 121.53 10.476C121.93 9.9 122.13 9.336 122.13 8.784C122.13 8.264 122.002 7.856 121.746 7.56C121.498 7.256 121.094 7.104 120.534 7.104C119.99 7.104 119.566 7.276 119.262 7.62C118.966 7.956 118.806 8.408 118.782 8.976H117.726C117.758 8.08 118.03 7.388 118.542 6.9C119.054 6.412 119.714 6.168 120.522 6.168C121.346 6.168 121.998 6.396 122.478 6.852C122.966 7.308 123.21 7.936 123.21 8.736C123.21 9.4 123.01 10.048 122.61 10.68C122.218 11.304 121.77 11.856 121.266 12.336C120.762 12.808 120.118 13.36 119.334 13.992H123.462V14.904H117.69V14.124ZM125.024 10.572C125.024 9.196 125.248 8.124 125.696 7.356C126.144 6.58 126.928 6.192 128.048 6.192C129.16 6.192 129.94 6.58 130.388 7.356C130.836 8.124 131.06 9.196 131.06 10.572C131.06 11.972 130.836 13.06 130.388 13.836C129.94 14.612 129.16 15 128.048 15C126.928 15 126.144 14.612 125.696 13.836C125.248 13.06 125.024 11.972 125.024 10.572ZM129.98 10.572C129.98 9.876 129.932 9.288 129.836 8.808C129.748 8.32 129.56 7.928 129.272 7.632C128.992 7.336 128.584 7.188 128.048 7.188C127.504 7.188 127.088 7.336 126.8 7.632C126.52 7.928 126.332 8.32 126.236 8.808C126.148 9.288 126.104 9.876 126.104 10.572C126.104 11.292 126.148 11.896 126.236 12.384C126.332 12.872 126.52 13.264 126.8 13.56C127.088 13.856 127.504 14.004 128.048 14.004C128.584 14.004 128.992 13.856 129.272 13.56C129.56 13.264 129.748 12.872 129.836 12.384C129.932 11.896 129.98 11.292 129.98 10.572ZM132.728 14.124C133.744 13.308 134.54 12.64 135.116 12.12C135.692 11.592 136.176 11.044 136.568 10.476C136.968 9.9 137.168 9.336 137.168 8.784C137.168 8.264 137.04 7.856 136.784 7.56C136.536 7.256 136.132 7.104 135.572 7.104C135.028 7.104 134.604 7.276 134.3 7.62C134.004 7.956 133.844 8.408 133.82 8.976H132.764C132.796 8.08 133.068 7.388 133.58 6.9C134.092 6.412 134.752 6.168 135.56 6.168C136.384 6.168 137.036 6.396 137.516 6.852C138.004 7.308 138.248 7.936 138.248 8.736C138.248 9.4 138.048 10.048 137.648 10.68C137.256 11.304 136.808 11.856 136.304 12.336C135.8 12.808 135.156 13.36 134.372 13.992H138.5V14.904H132.728V14.124ZM139.774 7.32V6.324H142.03V15H140.926V7.32H139.774Z" fill="#121212"></path>
<path d="M17.6904 4.87528C17.756 4.9157 17.8098 4.97038 17.847 5.03449C17.8843 5.09859 17.9038 5.17016 17.9039 5.24286V11.886C17.9039 11.9744 17.8751 12.0608 17.8213 12.1341C17.7674 12.2073 17.691 12.2641 17.6019 12.297L17.423 11.886L17.6019 12.297L17.599 12.2979L17.5932 12.3005L17.5711 12.3085C17.4446 12.3548 17.3173 12.3991 17.1892 12.4414C16.9353 12.5255 16.5823 12.6389 16.1822 12.7514C15.3973 12.9746 14.3749 13.2146 13.5756 13.2146C12.7609 13.2146 12.0867 12.9666 11.4999 12.7496L11.473 12.7407C10.8632 12.5149 10.3438 12.3289 9.72821 12.3289C9.05492 12.3289 8.15271 12.5326 7.38419 12.7514C7.0401 12.8501 6.69914 12.9579 6.36175 13.0747V18.5291C6.36175 18.6466 6.31108 18.7592 6.22089 18.8423C6.1307 18.9253 6.00837 18.972 5.88083 18.972C5.75328 18.972 5.63095 18.9253 5.54076 18.8423C5.45057 18.7592 5.3999 18.6466 5.3999 18.5291V5.24286C5.3999 5.12541 5.45057 5.01276 5.54076 4.9297C5.63095 4.84665 5.75328 4.79999 5.88083 4.79999C6.00837 4.79999 6.1307 4.84665 6.22089 4.9297C6.31108 5.01276 6.36175 5.12541 6.36175 5.24286V5.49264C6.57913 5.42267 6.83882 5.34207 7.12161 5.26235C7.90647 5.04091 8.92988 4.79999 9.72821 4.79999C10.5362 4.79999 11.1941 5.04534 11.7683 5.25969L11.8096 5.27564C12.4079 5.49796 12.9292 5.68574 13.5756 5.68574C14.2489 5.68574 15.1511 5.48202 15.9196 5.26324C16.3576 5.13729 16.7904 4.99666 17.2171 4.84162L17.2354 4.83542L17.2393 4.83365H17.2402" fill="#C4CAD3"></path>
</svg>