<svg width="67" height="66" viewBox="0 0 67 66" fill="none" xmlns="http://www.w3.org/2000/svg" xmlns:xlink="http://www.w3.org/1999/xlink">
<path d="M10.491 5.965V15H9.009V8.812L6.253 15H5.226L2.457 8.812V15H0.975V5.965H2.574L5.746 13.05L8.905 5.965H10.491ZM19.3039 11.243C19.3039 11.5117 19.2865 11.7543 19.2519 11.971H13.7789C13.8222 12.543 14.0345 13.0023 14.4159 13.349C14.7972 13.6957 15.2652 13.869 15.8199 13.869C16.6172 13.869 17.1805 13.5353 17.5099 12.868H19.1089C18.8922 13.5267 18.4979 14.0683 17.9259 14.493C17.3625 14.909 16.6605 15.117 15.8199 15.117C15.1352 15.117 14.5199 14.9653 13.9739 14.662C13.4365 14.35 13.0119 13.9167 12.6999 13.362C12.3965 12.7987 12.2449 12.1487 12.2449 11.412C12.2449 10.6753 12.3922 10.0297 12.6869 9.475C12.9902 8.91167 13.4105 8.47833 13.9479 8.175C14.4939 7.87167 15.1179 7.72 15.8199 7.72C16.4959 7.72 17.0982 7.86733 17.6269 8.162C18.1555 8.45667 18.5672 8.87267 18.8619 9.41C19.1565 9.93867 19.3039 10.5497 19.3039 11.243ZM17.7569 10.775C17.7482 10.229 17.5532 9.79133 17.1719 9.462C16.7905 9.13267 16.3182 8.968 15.7549 8.968C15.2435 8.968 14.8059 9.13267 14.4419 9.462C14.0779 9.78267 13.8612 10.2203 13.7919 10.775H17.7569ZM24.6763 7.72C25.2396 7.72 25.7423 7.837 26.1843 8.071C26.635 8.305 26.986 8.65167 27.2373 9.111C27.4886 9.57033 27.6143 10.125 27.6143 10.775V15H26.1453V10.996C26.1453 10.3547 25.985 9.865 25.6643 9.527C25.3436 9.18033 24.906 9.007 24.3513 9.007C23.7966 9.007 23.3546 9.18033 23.0253 9.527C22.7046 9.865 22.5443 10.3547 22.5443 10.996V15H21.0623V7.837H22.5443V8.656C22.787 8.36133 23.0946 8.13167 23.4673 7.967C23.8486 7.80233 24.2516 7.72 24.6763 7.72ZM31.5337 9.046V13.011C31.5337 13.2797 31.5944 13.4747 31.7157 13.596C31.8457 13.7087 32.0624 13.765 32.3657 13.765H33.2757V15H32.1057C31.4384 15 30.927 14.844 30.5717 14.532C30.2164 14.22 30.0387 13.713 30.0387 13.011V9.046H29.1937V7.837H30.0387V6.056H31.5337V7.837H33.2757V9.046H31.5337ZM38.0486 15.117C37.3726 15.117 36.7616 14.9653 36.2156 14.662C35.6696 14.35 35.2406 13.9167 34.9286 13.362C34.6166 12.7987 34.4606 12.1487 34.4606 11.412C34.4606 10.684 34.6209 10.0383 34.9416 9.475C35.2623 8.91167 35.6999 8.47833 36.2546 8.175C36.8093 7.87167 37.4289 7.72 38.1136 7.72C38.7983 7.72 39.4179 7.87167 39.9726 8.175C40.5273 8.47833 40.9649 8.91167 41.2856 9.475C41.6063 10.0383 41.7666 10.684 41.7666 11.412C41.7666 12.14 41.6019 12.7857 41.2726 13.349C40.9433 13.9123 40.4926 14.35 39.9206 14.662C39.3573 14.9653 38.7333 15.117 38.0486 15.117ZM38.0486 13.83C38.4299 13.83 38.7853 13.739 39.1146 13.557C39.4526 13.375 39.7256 13.102 39.9336 12.738C40.1416 12.374 40.2456 11.932 40.2456 11.412C40.2456 10.892 40.1459 10.4543 39.9466 10.099C39.7473 9.735 39.4829 9.462 39.1536 9.28C38.8243 9.098 38.4689 9.007 38.0876 9.007C37.7063 9.007 37.3509 9.098 37.0216 9.28C36.7009 9.462 36.4453 9.735 36.2546 10.099C36.0639 10.4543 35.9686 10.892 35.9686 11.412C35.9686 12.1833 36.1636 12.7813 36.5536 13.206C36.9523 13.622 37.4506 13.83 38.0486 13.83ZM45.0136 8.877C45.2303 8.513 45.5163 8.23133 45.8716 8.032C46.2356 7.824 46.6646 7.72 47.1586 7.72V9.254H46.7816C46.201 9.254 45.759 9.40133 45.4556 9.696C45.161 9.99067 45.0136 10.502 45.0136 11.23V15H43.5316V7.837H45.0136V8.877ZM51.4209 15.117C50.8576 15.117 50.3506 15.0173 49.8999 14.818C49.4579 14.61 49.1069 14.3327 48.8469 13.986C48.5869 13.6307 48.4482 13.2363 48.4309 12.803H49.9649C49.9909 13.1063 50.1339 13.362 50.3939 13.57C50.6626 13.7693 50.9962 13.869 51.3949 13.869C51.8109 13.869 52.1316 13.791 52.3569 13.635C52.5909 13.4703 52.7079 13.2623 52.7079 13.011C52.7079 12.7423 52.5779 12.543 52.3179 12.413C52.0666 12.283 51.6636 12.14 51.1089 11.984C50.5716 11.8367 50.1339 11.6937 49.7959 11.555C49.4579 11.4163 49.1632 11.204 48.9119 10.918C48.6692 10.632 48.5479 10.255 48.5479 9.787C48.5479 9.40567 48.6606 9.059 48.8859 8.747C49.1112 8.42633 49.4319 8.175 49.8479 7.993C50.2726 7.811 50.7579 7.72 51.3039 7.72C52.1186 7.72 52.7729 7.928 53.2669 8.344C53.7696 8.75133 54.0382 9.31033 54.0729 10.021H52.5909C52.5649 9.70033 52.4349 9.44467 52.2009 9.254C51.9669 9.06333 51.6506 8.968 51.2519 8.968C50.8619 8.968 50.5629 9.04167 50.3549 9.189C50.1469 9.33633 50.0429 9.53133 50.0429 9.774C50.0429 9.96467 50.1122 10.125 50.2509 10.255C50.3896 10.385 50.5586 10.489 50.7579 10.567C50.9572 10.6363 51.2519 10.7273 51.6419 10.84C52.1619 10.9787 52.5866 11.1217 52.9159 11.269C53.2539 11.4077 53.5442 11.6157 53.7869 11.893C54.0296 12.1703 54.1552 12.5387 54.1639 12.998C54.1639 13.4053 54.0512 13.7693 53.8259 14.09C53.6006 14.4107 53.2799 14.662 52.8639 14.844C52.4566 15.026 51.9756 15.117 51.4209 15.117Z" fill="#121212"></path>
<path fill-rule="evenodd" clip-rule="evenodd" d="M31 48C31 38.0589 39.0589 30 49 30C58.9411 30 67 38.0589 67 48C67 57.9411 58.9411 66 49 66C39.0589 66 31 57.9411 31 48Z" fill="white"></path>
<mask id="mask0_710_329" style="mask-type:luminance" maskUnits="userSpaceOnUse" x="31" y="30" width="36" height="36">
<path fill-rule="evenodd" clip-rule="evenodd" d="M31 48C31 38.0589 39.0589 30 49 30C58.9411 30 67 38.0589 67 48C67 57.9411 58.9411 66 49 66C39.0589 66 31 57.9411 31 48Z" fill="white"></path>
<path fill-rule="evenodd" clip-rule="evenodd" d="M31 48C31 38.0589 39.0589 30 49 30C58.9411 30 67 38.0589 67 48C67 57.9411 58.9411 66 49 66C39.0589 66 31 57.9411 31 48Z" stroke="white"></path>
</mask>
<g mask="url(#mask0_710_329)">
<rect x="22" y="30" width="54" height="36" fill="url(#pattern0_710_329)"></rect>
</g>
<mask id="mask1_710_329" style="mask-type:alpha" maskUnits="userSpaceOnUse" x="0" y="30" width="36" height="36">
<circle cx="18" cy="48" r="18" fill="#C4C4C4"></circle>
</mask>
<g mask="url(#mask1_710_329)">
<rect x="-41.8909" y="30" width="120.436" height="79.2" fill="url(#pattern1_710_329)"></rect>
</g>
<defs>
<pattern id="pattern0_710_329" patternContentUnits="objectBoundingBox" width="1" height="1">
<use xlink:href="#image0_710_329" transform="matrix(0.001 0 0 0.0015 0 -0.00025)"></use>
</pattern>
<pattern id="pattern1_710_329" patternContentUnits="objectBoundingBox" width="1" height="1">
<use xlink:href="#image1_710_329" transform="matrix(0.00159744 0 0 0.00242917 0 -0.00648221)"></use>
</pattern>
<image id="image0_710_329" width="1000" height="667" preserveAspectRatio="none"></image>
<image id="image1_710_329" width="626" height="417" preserveAspectRatio="none"></image>
</defs>
</svg>