<svg width="98" height="66" viewBox="0 0 98 66" fill="none" xmlns="http://www.w3.org/2000/svg" xmlns:xlink="http://www.w3.org/1999/xlink">
<path d="M10.491 5.965V15H9.009V8.812L6.253 15H5.226L2.457 8.812V15H0.975V5.965H2.574L5.746 13.05L8.905 5.965H10.491ZM19.3039 11.243C19.3039 11.5117 19.2865 11.7543 19.2519 11.971H13.7789C13.8222 12.543 14.0345 13.0023 14.4159 13.349C14.7972 13.6957 15.2652 13.869 15.8199 13.869C16.6172 13.869 17.1805 13.5353 17.5099 12.868H19.1089C18.8922 13.5267 18.4979 14.0683 17.9259 14.493C17.3625 14.909 16.6605 15.117 15.8199 15.117C15.1352 15.117 14.5199 14.9653 13.9739 14.662C13.4365 14.35 13.0119 13.9167 12.6999 13.362C12.3965 12.7987 12.2449 12.1487 12.2449 11.412C12.2449 10.6753 12.3922 10.0297 12.6869 9.475C12.9902 8.91167 13.4105 8.47833 13.9479 8.175C14.4939 7.87167 15.1179 7.72 15.8199 7.72C16.4959 7.72 17.0982 7.86733 17.6269 8.162C18.1555 8.45667 18.5672 8.87267 18.8619 9.41C19.1565 9.93867 19.3039 10.5497 19.3039 11.243ZM17.7569 10.775C17.7482 10.229 17.5532 9.79133 17.1719 9.462C16.7905 9.13267 16.3182 8.968 15.7549 8.968C15.2435 8.968 14.8059 9.13267 14.4419 9.462C14.0779 9.78267 13.8612 10.2203 13.7919 10.775H17.7569ZM29.7333 7.72C30.2966 7.72 30.7993 7.837 31.2413 8.071C31.692 8.305 32.043 8.65167 32.2943 9.111C32.5543 9.57033 32.6843 10.125 32.6843 10.775V15H31.2153V10.996C31.2153 10.3547 31.055 9.865 30.7343 9.527C30.4136 9.18033 29.976 9.007 29.4213 9.007C28.8666 9.007 28.4246 9.18033 28.0953 9.527C27.7746 9.865 27.6143 10.3547 27.6143 10.996V15H26.1453V10.996C26.1453 10.3547 25.985 9.865 25.6643 9.527C25.3436 9.18033 24.906 9.007 24.3513 9.007C23.7966 9.007 23.3546 9.18033 23.0253 9.527C22.7046 9.865 22.5443 10.3547 22.5443 10.996V15H21.0623V7.837H22.5443V8.656C22.787 8.36133 23.0946 8.13167 23.4673 7.967C23.84 7.80233 24.2386 7.72 24.6633 7.72C25.2353 7.72 25.7466 7.84133 26.1973 8.084C26.648 8.32667 26.9946 8.67767 27.2373 9.137C27.454 8.70367 27.792 8.36133 28.2513 8.11C28.7106 7.85 29.2046 7.72 29.7333 7.72ZM36.3521 8.903C36.6035 8.55633 36.9458 8.27467 37.3791 8.058C37.8211 7.83267 38.3108 7.72 38.8481 7.72C39.4808 7.72 40.0528 7.87167 40.5641 8.175C41.0755 8.47833 41.4785 8.91167 41.7731 9.475C42.0678 10.0297 42.2151 10.6667 42.2151 11.386C42.2151 12.1053 42.0678 12.751 41.7731 13.323C41.4785 13.8863 41.0711 14.3283 40.5511 14.649C40.0398 14.961 39.4721 15.117 38.8481 15.117C38.2935 15.117 37.7995 15.0087 37.3661 14.792C36.9415 14.5753 36.6035 14.298 36.3521 13.96V15H34.8701V5.38H36.3521V8.903ZM40.7071 11.386C40.7071 10.892 40.6031 10.4673 40.3951 10.112C40.1958 9.748 39.9271 9.475 39.5891 9.293C39.2598 9.10233 38.9045 9.007 38.5231 9.007C38.1505 9.007 37.7951 9.10233 37.4571 9.293C37.1278 9.48367 36.8591 9.761 36.6511 10.125C36.4518 10.489 36.3521 10.918 36.3521 11.412C36.3521 11.906 36.4518 12.3393 36.6511 12.712C36.8591 13.076 37.1278 13.3533 37.4571 13.544C37.7951 13.7347 38.1505 13.83 38.5231 13.83C38.9045 13.83 39.2598 13.7347 39.5891 13.544C39.9271 13.3447 40.1958 13.0587 40.3951 12.686C40.6031 12.3133 40.7071 11.88 40.7071 11.386ZM50.5457 11.243C50.5457 11.5117 50.5283 11.7543 50.4937 11.971H45.0207C45.064 12.543 45.2763 13.0023 45.6577 13.349C46.039 13.6957 46.507 13.869 47.0617 13.869C47.859 13.869 48.4223 13.5353 48.7517 12.868H50.3507C50.134 13.5267 49.7397 14.0683 49.1677 14.493C48.6043 14.909 47.9023 15.117 47.0617 15.117C46.377 15.117 45.7617 14.9653 45.2157 14.662C44.6783 14.35 44.2537 13.9167 43.9417 13.362C43.6383 12.7987 43.4867 12.1487 43.4867 11.412C43.4867 10.6753 43.634 10.0297 43.9287 9.475C44.232 8.91167 44.6523 8.47833 45.1897 8.175C45.7357 7.87167 46.3597 7.72 47.0617 7.72C47.7377 7.72 48.34 7.86733 48.8687 8.162C49.3973 8.45667 49.809 8.87267 50.1037 9.41C50.3983 9.93867 50.5457 10.5497 50.5457 11.243ZM48.9987 10.775C48.99 10.229 48.795 9.79133 48.4137 9.462C48.0323 9.13267 47.56 8.968 46.9967 8.968C46.4853 8.968 46.0477 9.13267 45.6837 9.462C45.3197 9.78267 45.103 10.2203 45.0337 10.775H48.9987ZM53.7861 8.877C54.0028 8.513 54.2888 8.23133 54.6441 8.032C55.0081 7.824 55.4371 7.72 55.9311 7.72V9.254H55.5541C54.9734 9.254 54.5314 9.40133 54.2281 9.696C53.9334 9.99067 53.7861 10.502 53.7861 11.23V15H52.3041V7.837H53.7861V8.877ZM60.1934 15.117C59.63 15.117 59.123 15.0173 58.6724 14.818C58.2304 14.61 57.8794 14.3327 57.6194 13.986C57.3594 13.6307 57.2207 13.2363 57.2034 12.803H58.7374C58.7634 13.1063 58.9064 13.362 59.1664 13.57C59.435 13.7693 59.7687 13.869 60.1674 13.869C60.5834 13.869 60.904 13.791 61.1294 13.635C61.3634 13.4703 61.4804 13.2623 61.4804 13.011C61.4804 12.7423 61.3504 12.543 61.0904 12.413C60.839 12.283 60.436 12.14 59.8814 11.984C59.344 11.8367 58.9064 11.6937 58.5684 11.555C58.2304 11.4163 57.9357 11.204 57.6844 10.918C57.4417 10.632 57.3204 10.255 57.3204 9.787C57.3204 9.40567 57.433 9.059 57.6584 8.747C57.8837 8.42633 58.2044 8.175 58.6204 7.993C59.045 7.811 59.5304 7.72 60.0764 7.72C60.891 7.72 61.5454 7.928 62.0394 8.344C62.542 8.75133 62.8107 9.31033 62.8454 10.021H61.3634C61.3374 9.70033 61.2074 9.44467 60.9734 9.254C60.7394 9.06333 60.423 8.968 60.0244 8.968C59.6344 8.968 59.3354 9.04167 59.1274 9.189C58.9194 9.33633 58.8154 9.53133 58.8154 9.774C58.8154 9.96467 58.8847 10.125 59.0234 10.255C59.162 10.385 59.331 10.489 59.5304 10.567C59.7297 10.6363 60.0244 10.7273 60.4144 10.84C60.9344 10.9787 61.359 11.1217 61.6884 11.269C62.0264 11.4077 62.3167 11.6157 62.5594 11.893C62.802 12.1703 62.9277 12.5387 62.9364 12.998C62.9364 13.4053 62.8237 13.7693 62.5984 14.09C62.373 14.4107 62.0524 14.662 61.6364 14.844C61.229 15.026 60.748 15.117 60.1934 15.117Z" fill="#121212"></path>
<mask id="mask0_710_316" style="mask-type:alpha" maskUnits="userSpaceOnUse" x="62" y="30" width="36" height="36">
<circle cx="80" cy="48" r="18" fill="#C4C4C4"></circle>
</mask>
<g mask="url(#mask0_710_316)">
<rect x="37.1272" y="30" width="86.4" height="57.6" fill="url(#pattern0_710_316)"></rect>
</g>
<mask id="mask1_710_316" style="mask-type:alpha" maskUnits="userSpaceOnUse" x="31" y="30" width="36" height="36">
<circle cx="49" cy="48" r="18" fill="#C4C4C4"></circle>
</mask>
<g mask="url(#mask1_710_316)">
<rect x="20.5273" y="30" width="83.7818" height="58.2545" fill="url(#pattern1_710_316)"></rect>
</g>
<mask id="mask2_710_316" style="mask-type:alpha" maskUnits="userSpaceOnUse" x="0" y="30" width="36" height="36">
<circle cx="18" cy="48" r="18" fill="#C4C4C4"></circle>
</mask>
<g mask="url(#mask2_710_316)">
<rect x="-24.2181" y="-6" width="86.4" height="90.3273" fill="url(#pattern2_710_316)"></rect>
</g>
<defs>
<pattern id="pattern0_710_316" patternContentUnits="objectBoundingBox" width="1" height="1">
<use xlink:href="#image0_710_316" transform="matrix(0.00159872 0 0 0.00239808 -0.000399658 0)"></use>
</pattern>
<pattern id="pattern1_710_316" patternContentUnits="objectBoundingBox" width="1" height="1">
<use xlink:href="#image1_710_316" transform="matrix(0.00309028 0 0 0.00444444 -0.022257 0)"></use>
</pattern>
<pattern id="pattern2_710_316" patternContentUnits="objectBoundingBox" width="1" height="1">
<use xlink:href="#image2_710_316" transform="matrix(0.00309306 0 0 0.00295858 -0.0227273 0)"></use>
</pattern>
<image id="image0_710_316" width="626" height="417" preserveAspectRatio="none"></image>
<image id="image1_710_316" width="338" height="225" preserveAspectRatio="none"></image>
<image id="image2_710_316" width="338" height="338" preserveAspectRatio="none"></image>
</defs>
</svg>