<svg width="400" height="300" viewBox="0 0 400 300" fill="none" xmlns="http://www.w3.org/2000/svg" xmlns:xlink="http://www.w3.org/1999/xlink">
<rect width="400" height="300" rx="8" fill="white"></rect>
<rect x="297.5" y="23.5" width="71" height="30.0175" rx="4.5" stroke="#D3D2D2"></rect>
<path d="M310.572 34.1448V35.0328H308.292V42.5088H307.2V35.0328H304.908V34.1448H310.572ZM315.084 42.6168C314.468 42.6168 313.908 42.4768 313.404 42.1968C312.908 41.9168 312.516 41.5208 312.228 41.0088C311.948 40.4888 311.808 39.8888 311.808 39.2088C311.808 38.5368 311.952 37.9448 312.24 37.4328C312.536 36.9128 312.936 36.5168 313.44 36.2448C313.944 35.9648 314.508 35.8248 315.132 35.8248C315.756 35.8248 316.32 35.9648 316.824 36.2448C317.328 36.5168 317.724 36.9088 318.012 37.4208C318.308 37.9328 318.456 38.5288 318.456 39.2088C318.456 39.8888 318.304 40.4888 318 41.0088C317.704 41.5208 317.3 41.9168 316.788 42.1968C316.276 42.4768 315.708 42.6168 315.084 42.6168ZM315.084 41.6568C315.476 41.6568 315.844 41.5648 316.188 41.3808C316.532 41.1968 316.808 40.9208 317.016 40.5528C317.232 40.1848 317.34 39.7368 317.34 39.2088C317.34 38.6808 317.236 38.2328 317.028 37.8648C316.82 37.4968 316.548 37.2248 316.212 37.0488C315.876 36.8648 315.512 36.7728 315.12 36.7728C314.72 36.7728 314.352 36.8648 314.016 37.0488C313.688 37.2248 313.424 37.4968 313.224 37.8648C313.024 38.2328 312.924 38.6808 312.924 39.2088C312.924 39.7448 313.02 40.1968 313.212 40.5648C313.412 40.9328 313.676 41.2088 314.004 41.3928C314.332 41.5688 314.692 41.6568 315.084 41.6568ZM319.784 39.1968C319.784 38.5248 319.92 37.9368 320.192 37.4328C320.464 36.9208 320.836 36.5248 321.308 36.2448C321.788 35.9648 322.324 35.8248 322.916 35.8248C323.428 35.8248 323.904 35.9448 324.344 36.1848C324.784 36.4168 325.12 36.7248 325.352 37.1088V33.6288H326.456V42.5088H325.352V41.2728C325.136 41.6648 324.816 41.9888 324.392 42.2448C323.968 42.4928 323.472 42.6168 322.904 42.6168C322.32 42.6168 321.788 42.4728 321.308 42.1848C320.836 41.8968 320.464 41.4928 320.192 40.9728C319.92 40.4528 319.784 39.8608 319.784 39.1968ZM325.352 39.2088C325.352 38.7128 325.252 38.2808 325.052 37.9128C324.852 37.5448 324.58 37.2648 324.236 37.0728C323.9 36.8728 323.528 36.7728 323.12 36.7728C322.712 36.7728 322.34 36.8688 322.004 37.0608C321.668 37.2528 321.4 37.5328 321.2 37.9008C321 38.2688 320.9 38.7008 320.9 39.1968C320.9 39.7008 321 40.1408 321.2 40.5168C321.4 40.8848 321.668 41.1688 322.004 41.3688C322.34 41.5608 322.712 41.6568 323.12 41.6568C323.528 41.6568 323.9 41.5608 324.236 41.3688C324.58 41.1688 324.852 40.8848 325.052 40.5168C325.252 40.1408 325.352 39.7048 325.352 39.2088ZM328.193 39.1968C328.193 38.5248 328.329 37.9368 328.601 37.4328C328.873 36.9208 329.245 36.5248 329.717 36.2448C330.197 35.9648 330.729 35.8248 331.313 35.8248C331.889 35.8248 332.389 35.9488 332.813 36.1968C333.237 36.4448 333.553 36.7568 333.761 37.1328V35.9328H334.865V42.5088H333.761V41.2848C333.545 41.6688 333.221 41.9888 332.789 42.2448C332.365 42.4928 331.869 42.6168 331.301 42.6168C330.717 42.6168 330.189 42.4728 329.717 42.1848C329.245 41.8968 328.873 41.4928 328.601 40.9728C328.329 40.4528 328.193 39.8608 328.193 39.1968ZM333.761 39.2088C333.761 38.7128 333.661 38.2808 333.461 37.9128C333.261 37.5448 332.989 37.2648 332.645 37.0728C332.309 36.8728 331.937 36.7728 331.529 36.7728C331.121 36.7728 330.749 36.8688 330.413 37.0608C330.077 37.2528 329.809 37.5328 329.609 37.9008C329.409 38.2688 329.309 38.7008 329.309 39.1968C329.309 39.7008 329.409 40.1408 329.609 40.5168C329.809 40.8848 330.077 41.1688 330.413 41.3688C330.749 41.5608 331.121 41.6568 331.529 41.6568C331.937 41.6568 332.309 41.5608 332.645 41.3688C332.989 41.1688 333.261 40.8848 333.461 40.5168C333.661 40.1408 333.761 39.7048 333.761 39.2088ZM342.675 35.9328L338.715 45.6048H337.587L338.883 42.4368L336.231 35.9328H337.443L339.507 41.2608L341.547 35.9328H342.675Z" fill="#4F4F4F"></path>
<path fill-rule="evenodd" clip-rule="evenodd" d="M354.529 36.4125C354.558 36.3834 354.592 36.3603 354.63 36.3446C354.668 36.3288 354.709 36.3207 354.75 36.3207C354.791 36.3207 354.832 36.3288 354.87 36.3446C354.908 36.3603 354.942 36.3834 354.971 36.4125L358.5 39.9419L362.029 36.4125C362.058 36.3835 362.092 36.3604 362.13 36.3447C362.168 36.329 362.209 36.3209 362.25 36.3209C362.291 36.3209 362.332 36.329 362.37 36.3447C362.408 36.3604 362.442 36.3835 362.471 36.4125C362.5 36.4416 362.523 36.4761 362.539 36.514C362.555 36.552 362.563 36.5927 362.563 36.6338C362.563 36.6749 362.555 36.7155 362.539 36.7535C362.523 36.7915 362.5 36.826 362.471 36.855L358.721 40.605C358.692 40.6341 358.658 40.6572 358.62 40.673C358.582 40.6887 358.541 40.6968 358.5 40.6968C358.459 40.6968 358.418 40.6887 358.38 40.673C358.342 40.6572 358.308 40.6341 358.279 40.605L354.529 36.855C354.5 36.826 354.477 36.7915 354.461 36.7535C354.445 36.7156 354.437 36.6749 354.437 36.6338C354.437 36.5927 354.445 36.552 354.461 36.514C354.477 36.476 354.5 36.4415 354.529 36.4125Z" fill="#828282"></path>
<path d="M30.946 43.606H25.942L25.114 46H22.468L26.986 33.418H29.92L34.438 46H31.774L30.946 43.606ZM30.262 41.59L28.444 36.334L26.626 41.59H30.262ZM38.9468 37.576C39.2708 37.048 39.6908 36.634 40.2068 36.334C40.7348 36.034 41.3348 35.884 42.0068 35.884V38.53H41.3408C40.5488 38.53 39.9488 38.716 39.5408 39.088C39.1448 39.46 38.9468 40.108 38.9468 41.032V46H36.4268V36.028H38.9468V37.576ZM46.9381 38.098V42.922C46.9381 43.258 47.0161 43.504 47.1721 43.66C47.3401 43.804 47.6161 43.876 48.0001 43.876H49.1701V46H47.5861C45.4621 46 44.4001 44.968 44.4001 42.904V38.098H43.2121V36.028H44.4001V33.562H46.9381V36.028H49.1701V38.098H46.9381ZM52.5606 34.84C52.1166 34.84 51.7446 34.702 51.4446 34.426C51.1566 34.138 51.0126 33.784 51.0126 33.364C51.0126 32.944 51.1566 32.596 51.4446 32.32C51.7446 32.032 52.1166 31.888 52.5606 31.888C53.0046 31.888 53.3706 32.032 53.6586 32.32C53.9586 32.596 54.1086 32.944 54.1086 33.364C54.1086 33.784 53.9586 34.138 53.6586 34.426C53.3706 34.702 53.0046 34.84 52.5606 34.84ZM53.8026 36.028V46H51.2826V36.028H53.8026ZM61.1644 38.098H59.4184V46H56.8624V38.098H55.7284V36.028H56.8624V35.524C56.8624 34.3 57.2104 33.4 57.9064 32.824C58.6024 32.248 59.6524 31.978 61.0564 32.014V34.138C60.4444 34.126 60.0184 34.228 59.7784 34.444C59.5384 34.66 59.4184 35.05 59.4184 35.614V36.028H61.1644V38.098ZM64.3755 34.84C63.9315 34.84 63.5595 34.702 63.2595 34.426C62.9715 34.138 62.8275 33.784 62.8275 33.364C62.8275 32.944 62.9715 32.596 63.2595 32.32C63.5595 32.032 63.9315 31.888 64.3755 31.888C64.8195 31.888 65.1855 32.032 65.4735 32.32C65.7735 32.596 65.9235 32.944 65.9235 33.364C65.9235 33.784 65.7735 34.138 65.4735 34.426C65.1855 34.702 64.8195 34.84 64.3755 34.84ZM65.6175 36.028V46H63.0975V36.028H65.6175ZM67.7592 41.014C67.7592 39.982 67.9692 39.082 68.3892 38.314C68.8092 37.534 69.3912 36.934 70.1352 36.514C70.8792 36.082 71.7312 35.866 72.6912 35.866C73.9272 35.866 74.9472 36.178 75.7512 36.802C76.5672 37.414 77.1132 38.278 77.3892 39.394H74.6712C74.5272 38.962 74.2812 38.626 73.9332 38.386C73.5972 38.134 73.1772 38.008 72.6732 38.008C71.9532 38.008 71.3832 38.272 70.9632 38.8C70.5432 39.316 70.3332 40.054 70.3332 41.014C70.3332 41.962 70.5432 42.7 70.9632 43.228C71.3832 43.744 71.9532 44.002 72.6732 44.002C73.6932 44.002 74.3592 43.546 74.6712 42.634H77.3892C77.1132 43.714 76.5672 44.572 75.7512 45.208C74.9352 45.844 73.9152 46.162 72.6912 46.162C71.7312 46.162 70.8792 45.952 70.1352 45.532C69.3912 45.1 68.8092 44.5 68.3892 43.732C67.9692 42.952 67.7592 42.046 67.7592 41.014ZM80.8134 34.84C80.3694 34.84 79.9974 34.702 79.6974 34.426C79.4094 34.138 79.2654 33.784 79.2654 33.364C79.2654 32.944 79.4094 32.596 79.6974 32.32C79.9974 32.032 80.3694 31.888 80.8134 31.888C81.2574 31.888 81.6234 32.032 81.9114 32.32C82.2114 32.596 82.3614 32.944 82.3614 33.364C82.3614 33.784 82.2114 34.138 81.9114 34.426C81.6234 34.702 81.2574 34.84 80.8134 34.84ZM82.0554 36.028V46H79.5354V36.028H82.0554ZM84.1971 40.978C84.1971 39.97 84.3951 39.076 84.7911 38.296C85.1991 37.516 85.7451 36.916 86.4291 36.496C87.1251 36.076 87.8991 35.866 88.7511 35.866C89.4951 35.866 90.1431 36.016 90.6951 36.316C91.2591 36.616 91.7091 36.994 92.0451 37.45V36.028H94.5831V46H92.0451V44.542C91.7211 45.01 91.2711 45.4 90.6951 45.712C90.1311 46.012 89.4771 46.162 88.7331 46.162C87.8931 46.162 87.1251 45.946 86.4291 45.514C85.7451 45.082 85.1991 44.476 84.7911 43.696C84.3951 42.904 84.1971 41.998 84.1971 40.978ZM92.0451 41.014C92.0451 40.402 91.9251 39.88 91.6851 39.448C91.4451 39.004 91.1211 38.668 90.7131 38.44C90.3051 38.2 89.8671 38.08 89.3991 38.08C88.9311 38.08 88.4991 38.194 88.1031 38.422C87.7071 38.65 87.3831 38.986 87.1311 39.43C86.8911 39.862 86.7711 40.378 86.7711 40.978C86.7711 41.578 86.8911 42.106 87.1311 42.562C87.3831 43.006 87.7071 43.348 88.1031 43.588C88.5111 43.828 88.9431 43.948 89.3991 43.948C89.8671 43.948 90.3051 43.834 90.7131 43.606C91.1211 43.366 91.4451 43.03 91.6851 42.598C91.9251 42.154 92.0451 41.626 92.0451 41.014ZM99.8643 32.68V46H97.3443V32.68H99.8643ZM109.763 33.436V46H107.243V33.436H109.763ZM118.079 35.884C119.267 35.884 120.227 36.262 120.959 37.018C121.691 37.762 122.057 38.806 122.057 40.15V46H119.537V40.492C119.537 39.7 119.339 39.094 118.943 38.674C118.547 38.242 118.007 38.026 117.323 38.026C116.627 38.026 116.075 38.242 115.667 38.674C115.271 39.094 115.073 39.7 115.073 40.492V46H112.553V36.028H115.073V37.27C115.409 36.838 115.835 36.502 116.351 36.262C116.879 36.01 117.455 35.884 118.079 35.884ZM127.687 38.098V42.922C127.687 43.258 127.765 43.504 127.921 43.66C128.089 43.804 128.365 43.876 128.749 43.876H129.919V46H128.335C126.211 46 125.149 44.968 125.149 42.904V38.098H123.961V36.028H125.149V33.562H127.687V36.028H129.919V38.098H127.687ZM141.302 40.798C141.302 41.158 141.278 41.482 141.23 41.77H133.94C134 42.49 134.252 43.054 134.696 43.462C135.14 43.87 135.686 44.074 136.334 44.074C137.27 44.074 137.936 43.672 138.332 42.868H141.05C140.762 43.828 140.21 44.62 139.394 45.244C138.578 45.856 137.576 46.162 136.388 46.162C135.428 46.162 134.564 45.952 133.796 45.532C133.04 45.1 132.446 44.494 132.014 43.714C131.594 42.934 131.384 42.034 131.384 41.014C131.384 39.982 131.594 39.076 132.014 38.296C132.434 37.516 133.022 36.916 133.778 36.496C134.534 36.076 135.404 35.866 136.388 35.866C137.336 35.866 138.182 36.07 138.926 36.478C139.682 36.886 140.264 37.468 140.672 38.224C141.092 38.968 141.302 39.826 141.302 40.798ZM138.692 40.078C138.68 39.43 138.446 38.914 137.99 38.53C137.534 38.134 136.976 37.936 136.316 37.936C135.692 37.936 135.164 38.128 134.732 38.512C134.312 38.884 134.054 39.406 133.958 40.078H138.692ZM145.961 32.68V46H143.441V32.68H145.961ZM151.271 32.68V46H148.751V32.68H151.271ZM155.339 34.84C154.895 34.84 154.523 34.702 154.223 34.426C153.935 34.138 153.791 33.784 153.791 33.364C153.791 32.944 153.935 32.596 154.223 32.32C154.523 32.032 154.895 31.888 155.339 31.888C155.783 31.888 156.149 32.032 156.437 32.32C156.737 32.596 156.887 32.944 156.887 33.364C156.887 33.784 156.737 34.138 156.437 34.426C156.149 34.702 155.783 34.84 155.339 34.84ZM156.581 36.028V46H154.061V36.028H156.581ZM163.277 35.866C164.021 35.866 164.675 36.016 165.239 36.316C165.803 36.604 166.247 36.982 166.571 37.45V36.028H169.109V46.072C169.109 46.996 168.923 47.818 168.551 48.538C168.179 49.27 167.621 49.846 166.877 50.266C166.133 50.698 165.233 50.914 164.177 50.914C162.761 50.914 161.597 50.584 160.685 49.924C159.785 49.264 159.275 48.364 159.155 47.224H161.657C161.789 47.68 162.071 48.04 162.503 48.304C162.947 48.58 163.481 48.718 164.105 48.718C164.837 48.718 165.431 48.496 165.887 48.052C166.343 47.62 166.571 46.96 166.571 46.072V44.524C166.247 44.992 165.797 45.382 165.221 45.694C164.657 46.006 164.009 46.162 163.277 46.162C162.437 46.162 161.669 45.946 160.973 45.514C160.277 45.082 159.725 44.476 159.317 43.696C158.921 42.904 158.723 41.998 158.723 40.978C158.723 39.97 158.921 39.076 159.317 38.296C159.725 37.516 160.271 36.916 160.955 36.496C161.651 36.076 162.425 35.866 163.277 35.866ZM166.571 41.014C166.571 40.402 166.451 39.88 166.211 39.448C165.971 39.004 165.647 38.668 165.239 38.44C164.831 38.2 164.393 38.08 163.925 38.08C163.457 38.08 163.025 38.194 162.629 38.422C162.233 38.65 161.909 38.986 161.657 39.43C161.417 39.862 161.297 40.378 161.297 40.978C161.297 41.578 161.417 42.106 161.657 42.562C161.909 43.006 162.233 43.348 162.629 43.588C163.037 43.828 163.469 43.948 163.925 43.948C164.393 43.948 164.831 43.834 165.239 43.606C165.647 43.366 165.971 43.03 166.211 42.598C166.451 42.154 166.571 41.626 166.571 41.014ZM181.14 40.798C181.14 41.158 181.116 41.482 181.068 41.77H173.778C173.838 42.49 174.09 43.054 174.534 43.462C174.978 43.87 175.524 44.074 176.172 44.074C177.108 44.074 177.774 43.672 178.17 42.868H180.888C180.6 43.828 180.048 44.62 179.232 45.244C178.416 45.856 177.414 46.162 176.226 46.162C175.266 46.162 174.402 45.952 173.634 45.532C172.878 45.1 172.284 44.494 171.852 43.714C171.432 42.934 171.222 42.034 171.222 41.014C171.222 39.982 171.432 39.076 171.852 38.296C172.272 37.516 172.86 36.916 173.616 36.496C174.372 36.076 175.242 35.866 176.226 35.866C177.174 35.866 178.02 36.07 178.764 36.478C179.52 36.886 180.102 37.468 180.51 38.224C180.93 38.968 181.14 39.826 181.14 40.798ZM178.53 40.078C178.518 39.43 178.284 38.914 177.828 38.53C177.372 38.134 176.814 37.936 176.154 37.936C175.53 37.936 175.002 38.128 174.57 38.512C174.15 38.884 173.892 39.406 173.796 40.078H178.53ZM188.805 35.884C189.993 35.884 190.953 36.262 191.685 37.018C192.417 37.762 192.783 38.806 192.783 40.15V46H190.263V40.492C190.263 39.7 190.065 39.094 189.669 38.674C189.273 38.242 188.733 38.026 188.049 38.026C187.353 38.026 186.801 38.242 186.393 38.674C185.997 39.094 185.799 39.7 185.799 40.492V46H183.279V36.028H185.799V37.27C186.135 36.838 186.561 36.502 187.077 36.262C187.605 36.01 188.181 35.884 188.805 35.884ZM194.832 41.014C194.832 39.982 195.042 39.082 195.462 38.314C195.882 37.534 196.464 36.934 197.208 36.514C197.952 36.082 198.804 35.866 199.764 35.866C201 35.866 202.02 36.178 202.824 36.802C203.64 37.414 204.186 38.278 204.462 39.394H201.744C201.6 38.962 201.354 38.626 201.006 38.386C200.67 38.134 200.25 38.008 199.746 38.008C199.026 38.008 198.456 38.272 198.036 38.8C197.616 39.316 197.406 40.054 197.406 41.014C197.406 41.962 197.616 42.7 198.036 43.228C198.456 43.744 199.026 44.002 199.746 44.002C200.766 44.002 201.432 43.546 201.744 42.634H204.462C204.186 43.714 203.64 44.572 202.824 45.208C202.008 45.844 200.988 46.162 199.764 46.162C198.804 46.162 197.952 45.952 197.208 45.532C196.464 45.1 195.882 44.5 195.462 43.732C195.042 42.952 194.832 42.046 194.832 41.014ZM215.878 40.798C215.878 41.158 215.854 41.482 215.806 41.77H208.516C208.576 42.49 208.828 43.054 209.272 43.462C209.716 43.87 210.262 44.074 210.91 44.074C211.846 44.074 212.512 43.672 212.908 42.868H215.626C215.338 43.828 214.786 44.62 213.97 45.244C213.154 45.856 212.152 46.162 210.964 46.162C210.004 46.162 209.14 45.952 208.372 45.532C207.616 45.1 207.022 44.494 206.59 43.714C206.17 42.934 205.96 42.034 205.96 41.014C205.96 39.982 206.17 39.076 206.59 38.296C207.01 37.516 207.598 36.916 208.354 36.496C209.11 36.076 209.98 35.866 210.964 35.866C211.912 35.866 212.758 36.07 213.502 36.478C214.258 36.886 214.84 37.468 215.248 38.224C215.668 38.968 215.878 39.826 215.878 40.798ZM213.268 40.078C213.256 39.43 213.022 38.914 212.566 38.53C212.11 38.134 211.552 37.936 210.892 37.936C210.268 37.936 209.74 38.128 209.308 38.512C208.888 38.884 208.63 39.406 208.534 40.078H213.268Z" fill="#121212"></path>
<circle cx="196.5" cy="106.5" r="7.5" fill="#D3D2D2"></circle>
<g clip-path="url(#clip0_710_248)">
<path fill-rule="evenodd" clip-rule="evenodd" d="M192 104.812C192 104.514 192.118 104.228 192.329 104.017C192.54 103.806 192.827 103.688 193.125 103.688H197.344C197.616 103.687 197.88 103.787 198.085 103.966C198.29 104.146 198.423 104.395 198.459 104.665L200.208 103.888C200.294 103.85 200.388 103.833 200.481 103.841C200.575 103.848 200.665 103.879 200.744 103.93C200.822 103.981 200.887 104.051 200.932 104.133C200.976 104.215 201 104.308 201 104.401V108.599C201 108.692 200.976 108.785 200.932 108.867C200.887 108.949 200.822 109.019 200.744 109.07C200.665 109.121 200.575 109.152 200.482 109.159C200.388 109.166 200.295 109.15 200.209 109.112L198.459 108.335C198.423 108.605 198.29 108.854 198.085 109.034C197.88 109.213 197.616 109.313 197.344 109.312H193.125C192.827 109.312 192.54 109.194 192.329 108.983C192.118 108.772 192 108.486 192 108.188V104.812Z" fill="white"></path>
</g>
<path d="M210.413 109.131H214.153V110H209.225V109.208L212.943 103.202H209.269V102.333H214.131V103.125L210.413 109.131ZM218.446 110.099C217.882 110.099 217.368 109.971 216.906 109.714C216.452 109.457 216.092 109.094 215.828 108.625C215.572 108.148 215.443 107.598 215.443 106.975C215.443 106.359 215.575 105.816 215.839 105.347C216.111 104.87 216.477 104.507 216.939 104.258C217.401 104.001 217.918 103.873 218.49 103.873C219.062 103.873 219.579 104.001 220.041 104.258C220.503 104.507 220.866 104.867 221.13 105.336C221.402 105.805 221.537 106.352 221.537 106.975C221.537 107.598 221.398 108.148 221.119 108.625C220.848 109.094 220.478 109.457 220.008 109.714C219.539 109.971 219.018 110.099 218.446 110.099ZM218.446 109.219C218.806 109.219 219.143 109.135 219.458 108.966C219.774 108.797 220.027 108.544 220.217 108.207C220.415 107.87 220.514 107.459 220.514 106.975C220.514 106.491 220.419 106.08 220.228 105.743C220.038 105.406 219.788 105.156 219.48 104.995C219.172 104.826 218.839 104.742 218.479 104.742C218.113 104.742 217.775 104.826 217.467 104.995C217.167 105.156 216.925 105.406 216.741 105.743C216.558 106.08 216.466 106.491 216.466 106.975C216.466 107.466 216.554 107.881 216.73 108.218C216.914 108.555 217.156 108.808 217.456 108.977C217.757 109.138 218.087 109.219 218.446 109.219ZM225.782 110.099C225.218 110.099 224.704 109.971 224.242 109.714C223.788 109.457 223.428 109.094 223.164 108.625C222.908 108.148 222.779 107.598 222.779 106.975C222.779 106.359 222.911 105.816 223.175 105.347C223.447 104.87 223.813 104.507 224.275 104.258C224.737 104.001 225.254 103.873 225.826 103.873C226.398 103.873 226.915 104.001 227.377 104.258C227.839 104.507 228.202 104.867 228.466 105.336C228.738 105.805 228.873 106.352 228.873 106.975C228.873 107.598 228.734 108.148 228.455 108.625C228.184 109.094 227.814 109.457 227.344 109.714C226.875 109.971 226.354 110.099 225.782 110.099ZM225.782 109.219C226.142 109.219 226.479 109.135 226.794 108.966C227.11 108.797 227.363 108.544 227.553 108.207C227.751 107.87 227.85 107.459 227.85 106.975C227.85 106.491 227.755 106.08 227.564 105.743C227.374 105.406 227.124 105.156 226.816 104.995C226.508 104.826 226.175 104.742 225.815 104.742C225.449 104.742 225.111 104.826 224.803 104.995C224.503 105.156 224.261 105.406 224.077 105.743C223.894 106.08 223.802 106.491 223.802 106.975C223.802 107.466 223.89 107.881 224.066 108.218C224.25 108.555 224.492 108.808 224.792 108.977C225.093 109.138 225.423 109.219 225.782 109.219ZM237.739 103.862C238.208 103.862 238.626 103.961 238.993 104.159C239.359 104.35 239.649 104.639 239.862 105.028C240.074 105.417 240.181 105.89 240.181 106.447V110H239.191V106.59C239.191 105.989 239.04 105.53 238.74 105.215C238.446 104.892 238.047 104.731 237.541 104.731C237.02 104.731 236.606 104.9 236.298 105.237C235.99 105.567 235.836 106.047 235.836 106.678V110H234.846V106.59C234.846 105.989 234.695 105.53 234.395 105.215C234.101 104.892 233.702 104.731 233.196 104.731C232.675 104.731 232.261 104.9 231.953 105.237C231.645 105.567 231.491 106.047 231.491 106.678V110H230.49V103.972H231.491V104.841C231.689 104.526 231.953 104.284 232.283 104.115C232.62 103.946 232.99 103.862 233.394 103.862C233.9 103.862 234.347 103.976 234.736 104.203C235.124 104.43 235.414 104.764 235.605 105.204C235.773 104.779 236.052 104.449 236.441 104.214C236.829 103.979 237.262 103.862 237.739 103.862Z" fill="#828282"></path>
<path d="M191.812 88.125C191.812 88.125 190.875 88.125 190.875 87.1875C190.875 86.25 191.812 83.4375 196.5 83.4375C201.188 83.4375 202.125 86.25 202.125 87.1875C202.125 88.125 201.188 88.125 201.188 88.125H191.812ZM196.5 82.5C197.246 82.5 197.961 82.2037 198.489 81.6762C199.016 81.1488 199.312 80.4334 199.312 79.6875C199.312 78.9416 199.016 78.2262 198.489 77.6988C197.961 77.1713 197.246 76.875 196.5 76.875C195.754 76.875 195.039 77.1713 194.511 77.6988C193.984 78.2262 193.688 78.9416 193.688 79.6875C193.688 80.4334 193.984 81.1488 194.511 81.6762C195.039 82.2037 195.754 82.5 196.5 82.5Z" fill="#D3D2D2"></path>
<path d="M217.343 78.388V86H216.342V80.324L213.812 86H213.108L210.567 80.313V86H209.566V78.388H210.644L213.46 84.68L216.276 78.388H217.343ZM220.342 80.951C220.518 80.6063 220.767 80.3387 221.09 80.148C221.42 79.9573 221.819 79.862 222.289 79.862V80.896H222.025C220.903 80.896 220.342 81.5047 220.342 82.722V86H219.341V79.972H220.342V80.951ZM224.063 86.066C223.873 86.066 223.711 86 223.579 85.868C223.447 85.736 223.381 85.5747 223.381 85.384C223.381 85.1933 223.447 85.032 223.579 84.9C223.711 84.768 223.873 84.702 224.063 84.702C224.247 84.702 224.401 84.768 224.525 84.9C224.657 85.032 224.723 85.1933 224.723 85.384C224.723 85.5747 224.657 85.736 224.525 85.868C224.401 86 224.247 86.066 224.063 86.066ZM237.363 78.388V86H236.362V80.324L233.832 86H233.128L230.587 80.313V86H229.586V78.388H230.664L233.48 84.68L236.296 78.388H237.363ZM238.987 82.964C238.987 82.348 239.112 81.809 239.361 81.347C239.61 80.8777 239.951 80.5147 240.384 80.258C240.824 80.0013 241.312 79.873 241.847 79.873C242.375 79.873 242.833 79.9867 243.222 80.214C243.611 80.4413 243.9 80.7273 244.091 81.072V79.972H245.103V86H244.091V84.878C243.893 85.23 243.596 85.5233 243.2 85.758C242.811 85.9853 242.357 86.099 241.836 86.099C241.301 86.099 240.817 85.967 240.384 85.703C239.951 85.439 239.61 85.0687 239.361 84.592C239.112 84.1153 238.987 83.5727 238.987 82.964ZM244.091 82.975C244.091 82.5203 243.999 82.1243 243.816 81.787C243.633 81.4497 243.383 81.193 243.068 81.017C242.76 80.8337 242.419 80.742 242.045 80.742C241.671 80.742 241.33 80.83 241.022 81.006C240.714 81.182 240.468 81.4387 240.285 81.776C240.102 82.1133 240.01 82.5093 240.01 82.964C240.01 83.426 240.102 83.8293 240.285 84.174C240.468 84.5113 240.714 84.7717 241.022 84.955C241.33 85.131 241.671 85.219 242.045 85.219C242.419 85.219 242.76 85.131 243.068 84.955C243.383 84.7717 243.633 84.5113 243.816 84.174C243.999 83.8293 244.091 83.4297 244.091 82.975ZM248.096 80.951C248.272 80.6063 248.521 80.3387 248.844 80.148C249.174 79.9573 249.573 79.862 250.043 79.862V80.896H249.779C248.657 80.896 248.096 81.5047 248.096 82.722V86H247.095V79.972H248.096V80.951ZM254.864 86L252.499 83.338V86H251.498V77.86H252.499V82.645L254.82 79.972H256.217L253.379 82.975L256.228 86H254.864ZM264.553 78.333V83.998C264.553 84.6287 264.359 85.1347 263.97 85.516C263.581 85.89 263.068 86.077 262.43 86.077C261.785 86.077 261.268 85.8863 260.879 85.505C260.49 85.1163 260.296 84.5883 260.296 83.921H261.297C261.304 84.295 261.4 84.5993 261.583 84.834C261.774 85.0687 262.056 85.186 262.43 85.186C262.804 85.186 263.083 85.076 263.266 84.856C263.449 84.6287 263.541 84.3427 263.541 83.998V78.333H264.553ZM272.325 82.755C272.325 82.9457 272.314 83.1473 272.292 83.36H267.474C267.511 83.954 267.712 84.4197 268.079 84.757C268.453 85.087 268.904 85.252 269.432 85.252C269.865 85.252 270.224 85.153 270.51 84.955C270.803 84.7497 271.009 84.4783 271.126 84.141H272.204C272.043 84.7203 271.72 85.1933 271.236 85.56C270.752 85.9193 270.151 86.099 269.432 86.099C268.86 86.099 268.347 85.9707 267.892 85.714C267.445 85.4573 267.093 85.0943 266.836 84.625C266.579 84.1483 266.451 83.5983 266.451 82.975C266.451 82.3517 266.576 81.8053 266.825 81.336C267.074 80.8667 267.423 80.5073 267.87 80.258C268.325 80.0013 268.845 79.873 269.432 79.873C270.004 79.873 270.51 79.9977 270.95 80.247C271.39 80.4963 271.727 80.841 271.962 81.281C272.204 81.7137 272.325 82.205 272.325 82.755ZM271.291 82.546C271.291 82.1647 271.207 81.8383 271.038 81.567C270.869 81.2883 270.638 81.0793 270.345 80.94C270.059 80.7933 269.74 80.72 269.388 80.72C268.882 80.72 268.449 80.8813 268.09 81.204C267.738 81.5267 267.536 81.974 267.485 82.546H271.291ZM276.399 80.797H275.134V86H274.133V80.797H273.352V79.972H274.133V79.543C274.133 78.8683 274.306 78.377 274.65 78.069C275.002 77.7537 275.563 77.596 276.333 77.596V78.432C275.893 78.432 275.582 78.52 275.398 78.696C275.222 78.8647 275.134 79.147 275.134 79.543V79.972H276.399V80.797ZM280.319 80.797H279.054V86H278.053V80.797H277.272V79.972H278.053V79.543C278.053 78.8683 278.226 78.377 278.57 78.069C278.922 77.7537 279.483 77.596 280.253 77.596V78.432C279.813 78.432 279.502 78.52 279.318 78.696C279.142 78.8647 279.054 79.147 279.054 79.543V79.972H280.319V80.797ZM287.286 82.755C287.286 82.9457 287.275 83.1473 287.253 83.36H282.435C282.472 83.954 282.674 84.4197 283.04 84.757C283.414 85.087 283.865 85.252 284.393 85.252C284.826 85.252 285.185 85.153 285.471 84.955C285.765 84.7497 285.97 84.4783 286.087 84.141H287.165C287.004 84.7203 286.681 85.1933 286.197 85.56C285.713 85.9193 285.112 86.099 284.393 86.099C283.821 86.099 283.308 85.9707 282.853 85.714C282.406 85.4573 282.054 85.0943 281.797 84.625C281.541 84.1483 281.412 83.5983 281.412 82.975C281.412 82.3517 281.537 81.8053 281.786 81.336C282.036 80.8667 282.384 80.5073 282.831 80.258C283.286 80.0013 283.807 79.873 284.393 79.873C284.965 79.873 285.471 79.9977 285.911 80.247C286.351 80.4963 286.689 80.841 286.923 81.281C287.165 81.7137 287.286 82.205 287.286 82.755ZM286.252 82.546C286.252 82.1647 286.168 81.8383 285.999 81.567C285.831 81.2883 285.6 81.0793 285.306 80.94C285.02 80.7933 284.701 80.72 284.349 80.72C283.843 80.72 283.411 80.8813 283.051 81.204C282.699 81.5267 282.498 81.974 282.446 82.546H286.252ZM289.909 80.951C290.085 80.6063 290.334 80.3387 290.657 80.148C290.987 79.9573 291.386 79.862 291.856 79.862V80.896H291.592C290.47 80.896 289.909 81.5047 289.909 82.722V86H288.908V79.972H289.909V80.951ZM295.445 86.099C294.983 86.099 294.569 86.022 294.202 85.868C293.836 85.7067 293.546 85.4867 293.333 85.208C293.121 84.922 293.003 84.5957 292.981 84.229H294.015C294.045 84.5297 294.184 84.7753 294.433 84.966C294.69 85.1567 295.024 85.252 295.434 85.252C295.816 85.252 296.116 85.1677 296.336 84.999C296.556 84.8303 296.666 84.6177 296.666 84.361C296.666 84.097 296.549 83.9027 296.314 83.778C296.08 83.646 295.717 83.5177 295.225 83.393C294.778 83.2757 294.411 83.1583 294.125 83.041C293.847 82.9163 293.605 82.7367 293.399 82.502C293.201 82.26 293.102 81.9447 293.102 81.556C293.102 81.248 293.194 80.9657 293.377 80.709C293.561 80.4523 293.821 80.2507 294.158 80.104C294.496 79.95 294.881 79.873 295.313 79.873C295.981 79.873 296.52 80.0417 296.93 80.379C297.341 80.7163 297.561 81.1783 297.59 81.765H296.589C296.567 81.4497 296.439 81.1967 296.204 81.006C295.977 80.8153 295.669 80.72 295.28 80.72C294.921 80.72 294.635 80.797 294.422 80.951C294.21 81.105 294.103 81.3067 294.103 81.556C294.103 81.754 294.166 81.919 294.29 82.051C294.422 82.1757 294.584 82.2783 294.774 82.359C294.972 82.4323 295.244 82.5167 295.588 82.612C296.021 82.7293 296.373 82.8467 296.644 82.964C296.916 83.074 297.147 83.2427 297.337 83.47C297.535 83.6973 297.638 83.9943 297.645 84.361C297.645 84.691 297.554 84.988 297.37 85.252C297.187 85.516 296.927 85.725 296.589 85.879C296.259 86.0257 295.878 86.099 295.445 86.099ZM301.987 86.099C301.423 86.099 300.909 85.9707 300.447 85.714C299.993 85.4573 299.633 85.0943 299.369 84.625C299.113 84.1483 298.984 83.5983 298.984 82.975C298.984 82.359 299.116 81.8163 299.38 81.347C299.652 80.8703 300.018 80.5073 300.48 80.258C300.942 80.0013 301.459 79.873 302.031 79.873C302.603 79.873 303.12 80.0013 303.582 80.258C304.044 80.5073 304.407 80.8667 304.671 81.336C304.943 81.8053 305.078 82.3517 305.078 82.975C305.078 83.5983 304.939 84.1483 304.66 84.625C304.389 85.0943 304.019 85.4573 303.549 85.714C303.08 85.9707 302.559 86.099 301.987 86.099ZM301.987 85.219C302.347 85.219 302.684 85.1347 302.999 84.966C303.315 84.7973 303.568 84.5443 303.758 84.207C303.956 83.8697 304.055 83.459 304.055 82.975C304.055 82.491 303.96 82.0803 303.769 81.743C303.579 81.4057 303.329 81.1563 303.021 80.995C302.713 80.8263 302.38 80.742 302.02 80.742C301.654 80.742 301.316 80.8263 301.008 80.995C300.708 81.1563 300.466 81.4057 300.282 81.743C300.099 82.0803 300.007 82.491 300.007 82.975C300.007 83.4663 300.095 83.8807 300.271 84.218C300.455 84.5553 300.697 84.8083 300.997 84.977C301.298 85.1383 301.628 85.219 301.987 85.219ZM309.631 79.862C310.365 79.862 310.959 80.0857 311.413 80.533C311.868 80.973 312.095 81.611 312.095 82.447V86H311.105V82.59C311.105 81.9887 310.955 81.5303 310.654 81.215C310.354 80.8923 309.943 80.731 309.422 80.731C308.894 80.731 308.473 80.896 308.157 81.226C307.849 81.556 307.695 82.0363 307.695 82.667V86H306.694V79.972H307.695V80.83C307.893 80.522 308.161 80.2837 308.498 80.115C308.843 79.9463 309.221 79.862 309.631 79.862Z" fill="#828282"></path>
<g clip-path="url(#clip1_710_248)">
<path d="M37 106.5C37 108.489 36.2098 110.397 34.8033 111.803C33.3968 113.21 31.4891 114 29.5 114C27.5109 114 25.6032 113.21 24.1967 111.803C22.7902 110.397 22 108.489 22 106.5C22 104.511 22.7902 102.603 24.1967 101.197C25.6032 99.7902 27.5109 99 29.5 99C31.4891 99 33.3968 99.7902 34.8033 101.197C36.2098 102.603 37 104.511 37 106.5ZM29.5 102.281C29.5 102.157 29.4506 102.038 29.3627 101.95C29.2748 101.862 29.1556 101.812 29.0312 101.812C28.9069 101.812 28.7877 101.862 28.6998 101.95C28.6119 102.038 28.5625 102.157 28.5625 102.281V107.438C28.5625 107.52 28.5844 107.601 28.6259 107.673C28.6674 107.744 28.727 107.803 28.7987 107.844L32.08 109.719C32.1877 109.778 32.3139 109.791 32.4315 109.758C32.5492 109.724 32.6491 109.646 32.7099 109.54C32.7706 109.433 32.7873 109.307 32.7565 109.189C32.7257 109.071 32.6498 108.969 32.545 108.906L29.5 107.166V102.281Z" fill="#D3D2D2"></path>
</g>
<path d="M41.5585 105.941C41.5585 104.68 41.7638 103.697 42.1745 102.993C42.5851 102.282 43.3038 101.926 44.3305 101.926C45.3498 101.926 46.0648 102.282 46.4755 102.993C46.8861 103.697 47.0915 104.68 47.0915 105.941C47.0915 107.224 46.8861 108.222 46.4755 108.933C46.0648 109.644 45.3498 110 44.3305 110C43.3038 110 42.5851 109.644 42.1745 108.933C41.7638 108.222 41.5585 107.224 41.5585 105.941ZM46.1015 105.941C46.1015 105.303 46.0575 104.764 45.9695 104.324C45.8888 103.877 45.7165 103.517 45.4525 103.246C45.1958 102.975 44.8218 102.839 44.3305 102.839C43.8318 102.839 43.4505 102.975 43.1865 103.246C42.9298 103.517 42.7575 103.877 42.6695 104.324C42.5888 104.764 42.5485 105.303 42.5485 105.941C42.5485 106.601 42.5888 107.155 42.6695 107.602C42.7575 108.049 42.9298 108.409 43.1865 108.68C43.4505 108.951 43.8318 109.087 44.3305 109.087C44.8218 109.087 45.1958 108.951 45.4525 108.68C45.7165 108.409 45.8888 108.049 45.9695 107.602C46.0575 107.155 46.1015 106.601 46.1015 105.941ZM48.6447 109.197C49.576 108.449 50.3057 107.837 50.8337 107.36C51.3617 106.876 51.8054 106.374 52.1647 105.853C52.5314 105.325 52.7147 104.808 52.7147 104.302C52.7147 103.825 52.5974 103.451 52.3627 103.18C52.1354 102.901 51.765 102.762 51.2517 102.762C50.753 102.762 50.3644 102.92 50.0857 103.235C49.8144 103.543 49.6677 103.957 49.6457 104.478H48.6777C48.707 103.657 48.9564 103.022 49.4257 102.575C49.895 102.128 50.5 101.904 51.2407 101.904C51.996 101.904 52.5937 102.113 53.0337 102.531C53.481 102.949 53.7047 103.525 53.7047 104.258C53.7047 104.867 53.5214 105.461 53.1547 106.04C52.7954 106.612 52.3847 107.118 51.9227 107.558C51.4607 107.991 50.8704 108.497 50.1517 109.076H53.9357V109.912H48.6447V109.197ZM55.8768 110.066C55.6862 110.066 55.5248 110 55.3928 109.868C55.2608 109.736 55.1948 109.575 55.1948 109.384C55.1948 109.193 55.2608 109.032 55.3928 108.9C55.5248 108.768 55.6862 108.702 55.8768 108.702C56.0602 108.702 56.2142 108.768 56.3388 108.9C56.4708 109.032 56.5368 109.193 56.5368 109.384C56.5368 109.575 56.4708 109.736 56.3388 109.868C56.2142 110 56.0602 110.066 55.8768 110.066ZM58.0024 105.941C58.0024 104.68 58.2077 103.697 58.6184 102.993C59.0291 102.282 59.7477 101.926 60.7744 101.926C61.7937 101.926 62.5087 102.282 62.9194 102.993C63.3301 103.697 63.5354 104.68 63.5354 105.941C63.5354 107.224 63.3301 108.222 62.9194 108.933C62.5087 109.644 61.7937 110 60.7744 110C59.7477 110 59.0291 109.644 58.6184 108.933C58.2077 108.222 58.0024 107.224 58.0024 105.941ZM62.5454 105.941C62.5454 105.303 62.5014 104.764 62.4134 104.324C62.3327 103.877 62.1604 103.517 61.8964 103.246C61.6397 102.975 61.2657 102.839 60.7744 102.839C60.2757 102.839 59.8944 102.975 59.6304 103.246C59.3737 103.517 59.2014 103.877 59.1134 104.324C59.0327 104.764 58.9924 105.303 58.9924 105.941C58.9924 106.601 59.0327 107.155 59.1134 107.602C59.2014 108.049 59.3737 108.409 59.6304 108.68C59.8944 108.951 60.2757 109.087 60.7744 109.087C61.2657 109.087 61.6397 108.951 61.8964 108.68C62.1604 108.409 62.3327 108.049 62.4134 107.602C62.5014 107.155 62.5454 106.601 62.5454 105.941ZM65.2096 105.941C65.2096 104.68 65.415 103.697 65.8256 102.993C66.2363 102.282 66.955 101.926 67.9816 101.926C69.001 101.926 69.716 102.282 70.1266 102.993C70.5373 103.697 70.7426 104.68 70.7426 105.941C70.7426 107.224 70.5373 108.222 70.1266 108.933C69.716 109.644 69.001 110 67.9816 110C66.955 110 66.2363 109.644 65.8256 108.933C65.415 108.222 65.2096 107.224 65.2096 105.941ZM69.7526 105.941C69.7526 105.303 69.7086 104.764 69.6206 104.324C69.54 103.877 69.3676 103.517 69.1036 103.246C68.847 102.975 68.473 102.839 67.9816 102.839C67.483 102.839 67.1016 102.975 66.8376 103.246C66.581 103.517 66.4086 103.877 66.3206 104.324C66.24 104.764 66.1996 105.303 66.1996 105.941C66.1996 106.601 66.24 107.155 66.3206 107.602C66.4086 108.049 66.581 108.409 66.8376 108.68C67.1016 108.951 67.483 109.087 67.9816 109.087C68.473 109.087 68.847 108.951 69.1036 108.68C69.3676 108.409 69.54 108.049 69.6206 107.602C69.7086 107.155 69.7526 106.601 69.7526 105.941ZM79.9945 105.545V106.392H75.6055V105.545H79.9945ZM82.0081 105.941C82.0081 104.68 82.2134 103.697 82.6241 102.993C83.0347 102.282 83.7534 101.926 84.7801 101.926C85.7994 101.926 86.5144 102.282 86.9251 102.993C87.3357 103.697 87.5411 104.68 87.5411 105.941C87.5411 107.224 87.3357 108.222 86.9251 108.933C86.5144 109.644 85.7994 110 84.7801 110C83.7534 110 83.0347 109.644 82.6241 108.933C82.2134 108.222 82.0081 107.224 82.0081 105.941ZM86.5511 105.941C86.5511 105.303 86.5071 104.764 86.4191 104.324C86.3384 103.877 86.1661 103.517 85.9021 103.246C85.6454 102.975 85.2714 102.839 84.7801 102.839C84.2814 102.839 83.9001 102.975 83.6361 103.246C83.3794 103.517 83.2071 103.877 83.1191 104.324C83.0384 104.764 82.9981 105.303 82.9981 105.941C82.9981 106.601 83.0384 107.155 83.1191 107.602C83.2071 108.049 83.3794 108.409 83.6361 108.68C83.9001 108.951 84.2814 109.087 84.7801 109.087C85.2714 109.087 85.6454 108.951 85.9021 108.68C86.1661 108.409 86.3384 108.049 86.4191 107.602C86.5071 107.155 86.5511 106.601 86.5511 105.941ZM89.1933 104.049C89.2446 103.374 89.505 102.846 89.9743 102.465C90.4436 102.084 91.0523 101.893 91.8003 101.893C92.299 101.893 92.728 101.985 93.0873 102.168C93.454 102.344 93.729 102.586 93.9123 102.894C94.103 103.202 94.1983 103.55 94.1983 103.939C94.1983 104.394 94.0663 104.786 93.8023 105.116C93.5456 105.446 93.2083 105.659 92.7903 105.754V105.809C93.267 105.926 93.6446 106.157 93.9233 106.502C94.202 106.847 94.3413 107.298 94.3413 107.855C94.3413 108.273 94.246 108.651 94.0553 108.988C93.8646 109.318 93.5786 109.578 93.1973 109.769C92.816 109.96 92.3576 110.055 91.8223 110.055C91.045 110.055 90.407 109.853 89.9083 109.45C89.4096 109.039 89.131 108.46 89.0723 107.712H90.0403C90.0916 108.152 90.2713 108.511 90.5793 108.79C90.8873 109.069 91.298 109.208 91.8113 109.208C92.3246 109.208 92.7133 109.076 92.9773 108.812C93.2486 108.541 93.3843 108.192 93.3843 107.767C93.3843 107.217 93.201 106.821 92.8343 106.579C92.4676 106.337 91.914 106.216 91.1733 106.216H90.9203V105.38H91.1843C91.859 105.373 92.3686 105.263 92.7133 105.05C93.058 104.83 93.2303 104.493 93.2303 104.038C93.2303 103.649 93.102 103.338 92.8453 103.103C92.596 102.868 92.2366 102.751 91.7673 102.751C91.3126 102.751 90.946 102.868 90.6673 103.103C90.3886 103.338 90.2236 103.653 90.1723 104.049H89.1933ZM96.4768 110.066C96.2862 110.066 96.1248 110 95.9928 109.868C95.8608 109.736 95.7948 109.575 95.7948 109.384C95.7948 109.193 95.8608 109.032 95.9928 108.9C96.1248 108.768 96.2862 108.702 96.4768 108.702C96.6602 108.702 96.8142 108.768 96.9388 108.9C97.0708 109.032 97.1368 109.193 97.1368 109.384C97.1368 109.575 97.0708 109.736 96.9388 109.868C96.8142 110 96.6602 110.066 96.4768 110.066ZM98.5804 104.049C98.6317 103.374 98.8921 102.846 99.3614 102.465C99.8307 102.084 100.439 101.893 101.187 101.893C101.686 101.893 102.115 101.985 102.474 102.168C102.841 102.344 103.116 102.586 103.299 102.894C103.49 103.202 103.585 103.55 103.585 103.939C103.585 104.394 103.453 104.786 103.189 105.116C102.933 105.446 102.595 105.659 102.177 105.754V105.809C102.654 105.926 103.032 106.157 103.31 106.502C103.589 106.847 103.728 107.298 103.728 107.855C103.728 108.273 103.633 108.651 103.442 108.988C103.252 109.318 102.966 109.578 102.584 109.769C102.203 109.96 101.745 110.055 101.209 110.055C100.432 110.055 99.7941 109.853 99.2954 109.45C98.7967 109.039 98.5181 108.46 98.4594 107.712H99.4274C99.4787 108.152 99.6584 108.511 99.9664 108.79C100.274 109.069 100.685 109.208 101.198 109.208C101.712 109.208 102.1 109.076 102.364 108.812C102.636 108.541 102.771 108.192 102.771 107.767C102.771 107.217 102.588 106.821 102.221 106.579C101.855 106.337 101.301 106.216 100.56 106.216H100.307V105.38H100.571C101.246 105.373 101.756 105.263 102.1 105.05C102.445 104.83 102.617 104.493 102.617 104.038C102.617 103.649 102.489 103.338 102.232 103.103C101.983 102.868 101.624 102.751 101.154 102.751C100.7 102.751 100.333 102.868 100.054 103.103C99.7757 103.338 99.6107 103.653 99.5594 104.049H98.5804ZM105.38 105.941C105.38 104.68 105.585 103.697 105.996 102.993C106.407 102.282 107.125 101.926 108.152 101.926C109.171 101.926 109.886 102.282 110.297 102.993C110.708 103.697 110.913 104.68 110.913 105.941C110.913 107.224 110.708 108.222 110.297 108.933C109.886 109.644 109.171 110 108.152 110C107.125 110 106.407 109.644 105.996 108.933C105.585 108.222 105.38 107.224 105.38 105.941ZM109.923 105.941C109.923 105.303 109.879 104.764 109.791 104.324C109.71 103.877 109.538 103.517 109.274 103.246C109.017 102.975 108.643 102.839 108.152 102.839C107.653 102.839 107.272 102.975 107.008 103.246C106.751 103.517 106.579 103.877 106.491 104.324C106.41 104.764 106.37 105.303 106.37 105.941C106.37 106.601 106.41 107.155 106.491 107.602C106.579 108.049 106.751 108.409 107.008 108.68C107.272 108.951 107.653 109.087 108.152 109.087C108.643 109.087 109.017 108.951 109.274 108.68C109.538 108.409 109.71 108.049 109.791 107.602C109.879 107.155 109.923 106.601 109.923 105.941ZM121.111 104.577C121.111 105.215 120.891 105.747 120.451 106.172C120.018 106.59 119.354 106.799 118.46 106.799H116.986V110H115.985V102.333H118.46C119.325 102.333 119.981 102.542 120.429 102.96C120.883 103.378 121.111 103.917 121.111 104.577ZM118.46 105.974C119.017 105.974 119.428 105.853 119.692 105.611C119.956 105.369 120.088 105.024 120.088 104.577C120.088 103.631 119.545 103.158 118.46 103.158H116.986V105.974H118.46ZM130.432 102.388V110H129.431V104.324L126.901 110H126.197L123.656 104.313V110H122.655V102.388H123.733L126.549 108.68L129.365 102.388H130.432Z" fill="#828282"></path>
<g clip-path="url(#clip2_710_248)">
<path d="M25.75 75.4688C25.75 75.3444 25.7006 75.2252 25.6127 75.1373C25.5248 75.0494 25.4056 75 25.2812 75C25.1569 75 25.0377 75.0494 24.9498 75.1373C24.8619 75.2252 24.8125 75.3444 24.8125 75.4688V75.9375H23.875C23.3777 75.9375 22.9008 76.135 22.5492 76.4867C22.1975 76.8383 22 77.3152 22 77.8125V78.75H37V77.8125C37 77.3152 36.8025 76.8383 36.4508 76.4867C36.0992 76.135 35.6223 75.9375 35.125 75.9375H34.1875V75.4688C34.1875 75.3444 34.1381 75.2252 34.0502 75.1373C33.9623 75.0494 33.8431 75 33.7188 75C33.5944 75 33.4752 75.0494 33.3873 75.1373C33.2994 75.2252 33.25 75.3444 33.25 75.4688V75.9375H25.75V75.4688ZM37 88.125V79.6875H22V88.125C22 88.6223 22.1975 89.0992 22.5492 89.4508C22.9008 89.8025 23.3777 90 23.875 90H35.125C35.6223 90 36.0992 89.8025 36.4508 89.4508C36.8025 89.0992 37 88.6223 37 88.125ZM30.9062 81.5625H31.8438C31.9681 81.5625 32.0873 81.6119 32.1752 81.6998C32.2631 81.7877 32.3125 81.9069 32.3125 82.0312V82.9688C32.3125 83.0931 32.2631 83.2123 32.1752 83.3002C32.0873 83.3881 31.9681 83.4375 31.8438 83.4375H30.9062C30.7819 83.4375 30.6627 83.3881 30.5748 83.3002C30.4869 83.2123 30.4375 83.0931 30.4375 82.9688V82.0312C30.4375 81.9069 30.4869 81.7877 30.5748 81.6998C30.6627 81.6119 30.7819 81.5625 30.9062 81.5625ZM33.7188 81.5625H34.6562C34.7806 81.5625 34.8998 81.6119 34.9877 81.6998C35.0756 81.7877 35.125 81.9069 35.125 82.0312V82.9688C35.125 83.0931 35.0756 83.2123 34.9877 83.3002C34.8998 83.3881 34.7806 83.4375 34.6562 83.4375H33.7188C33.5944 83.4375 33.4752 83.3881 33.3873 83.3002C33.2994 83.2123 33.25 83.0931 33.25 82.9688V82.0312C33.25 81.9069 33.2994 81.7877 33.3873 81.6998C33.4752 81.6119 33.5944 81.5625 33.7188 81.5625ZM23.875 84.8438C23.875 84.7194 23.9244 84.6002 24.0123 84.5123C24.1002 84.4244 24.2194 84.375 24.3438 84.375H25.2812C25.4056 84.375 25.5248 84.4244 25.6127 84.5123C25.7006 84.6002 25.75 84.7194 25.75 84.8438V85.7812C25.75 85.9056 25.7006 86.0248 25.6127 86.1127C25.5248 86.2006 25.4056 86.25 25.2812 86.25H24.3438C24.2194 86.25 24.1002 86.2006 24.0123 86.1127C23.9244 86.0248 23.875 85.9056 23.875 85.7812V84.8438ZM27.1562 84.375H28.0938C28.2181 84.375 28.3373 84.4244 28.4252 84.5123C28.5131 84.6002 28.5625 84.7194 28.5625 84.8438V85.7812C28.5625 85.9056 28.5131 86.0248 28.4252 86.1127C28.3373 86.2006 28.2181 86.25 28.0938 86.25H27.1562C27.0319 86.25 26.9127 86.2006 26.8248 86.1127C26.7369 86.0248 26.6875 85.9056 26.6875 85.7812V84.8438C26.6875 84.7194 26.7369 84.6002 26.8248 84.5123C26.9127 84.4244 27.0319 84.375 27.1562 84.375Z" fill="#D3D2D2"></path>
</g>
<path d="M49.5005 78.388V86H48.4995V80.324L45.9695 86H45.2655L42.7245 80.313V86H41.7235V78.388H42.8015L45.6175 84.68L48.4335 78.388H49.5005ZM54.1271 86.099C53.5624 86.099 53.0491 85.9707 52.5871 85.714C52.1324 85.4573 51.7731 85.0943 51.5091 84.625C51.2524 84.1483 51.1241 83.5983 51.1241 82.975C51.1241 82.359 51.2561 81.8163 51.5201 81.347C51.7914 80.8703 52.1581 80.5073 52.6201 80.258C53.0821 80.0013 53.5991 79.873 54.1711 79.873C54.7431 79.873 55.2601 80.0013 55.7221 80.258C56.1841 80.5073 56.5471 80.8667 56.8111 81.336C57.0824 81.8053 57.2181 82.3517 57.2181 82.975C57.2181 83.5983 57.0787 84.1483 56.8001 84.625C56.5287 85.0943 56.1584 85.4573 55.6891 85.714C55.2197 85.9707 54.6991 86.099 54.1271 86.099ZM54.1271 85.219C54.4864 85.219 54.8237 85.1347 55.1391 84.966C55.4544 84.7973 55.7074 84.5443 55.8981 84.207C56.0961 83.8697 56.1951 83.459 56.1951 82.975C56.1951 82.491 56.0997 82.0803 55.9091 81.743C55.7184 81.4057 55.4691 81.1563 55.1611 80.995C54.8531 80.8263 54.5194 80.742 54.1601 80.742C53.7934 80.742 53.4561 80.8263 53.1481 80.995C52.8474 81.1563 52.6054 81.4057 52.4221 81.743C52.2387 82.0803 52.1471 82.491 52.1471 82.975C52.1471 83.4663 52.2351 83.8807 52.4111 84.218C52.5944 84.5553 52.8364 84.8083 53.1371 84.977C53.4377 85.1383 53.7677 85.219 54.1271 85.219ZM61.7712 79.862C62.5045 79.862 63.0985 80.0857 63.5532 80.533C64.0079 80.973 64.2352 81.611 64.2352 82.447V86H63.2452V82.59C63.2452 81.9887 63.0949 81.5303 62.7942 81.215C62.4935 80.8923 62.0829 80.731 61.5622 80.731C61.0342 80.731 60.6125 80.896 60.2972 81.226C59.9892 81.556 59.8352 82.0363 59.8352 82.667V86H58.8342V79.972H59.8352V80.83C60.0332 80.522 60.3009 80.2837 60.6382 80.115C60.9829 79.9463 61.3605 79.862 61.7712 79.862ZM65.7963 82.964C65.7963 82.348 65.921 81.809 66.1703 81.347C66.4197 80.8777 66.7607 80.5147 67.1933 80.258C67.6333 80.0013 68.1247 79.873 68.6673 79.873C69.1367 79.873 69.573 79.983 69.9763 80.203C70.3797 80.4157 70.6877 80.698 70.9003 81.05V77.86H71.9123V86H70.9003V84.867C70.7023 85.2263 70.409 85.5233 70.0203 85.758C69.6317 85.9853 69.177 86.099 68.6563 86.099C68.121 86.099 67.6333 85.967 67.1933 85.703C66.7607 85.439 66.4197 85.0687 66.1703 84.592C65.921 84.1153 65.7963 83.5727 65.7963 82.964ZM70.9003 82.975C70.9003 82.5203 70.8087 82.1243 70.6253 81.787C70.442 81.4497 70.1927 81.193 69.8773 81.017C69.5693 80.8337 69.2283 80.742 68.8543 80.742C68.4803 80.742 68.1393 80.83 67.8313 81.006C67.5233 81.182 67.2777 81.4387 67.0943 81.776C66.911 82.1133 66.8193 82.5093 66.8193 82.964C66.8193 83.426 66.911 83.8293 67.0943 84.174C67.2777 84.5113 67.5233 84.7717 67.8313 84.955C68.1393 85.131 68.4803 85.219 68.8543 85.219C69.2283 85.219 69.5693 85.131 69.8773 84.955C70.1927 84.7717 70.442 84.5113 70.6253 84.174C70.8087 83.8293 70.9003 83.4297 70.9003 82.975ZM73.5299 82.964C73.5299 82.348 73.6546 81.809 73.9039 81.347C74.1533 80.8777 74.4943 80.5147 74.9269 80.258C75.3669 80.0013 75.8546 79.873 76.3899 79.873C76.9179 79.873 77.3763 79.9867 77.7649 80.214C78.1536 80.4413 78.4433 80.7273 78.6339 81.072V79.972H79.6459V86H78.6339V84.878C78.4359 85.23 78.1389 85.5233 77.7429 85.758C77.3543 85.9853 76.8996 86.099 76.3789 86.099C75.8436 86.099 75.3596 85.967 74.9269 85.703C74.4943 85.439 74.1533 85.0687 73.9039 84.592C73.6546 84.1153 73.5299 83.5727 73.5299 82.964ZM78.6339 82.975C78.6339 82.5203 78.5423 82.1243 78.3589 81.787C78.1756 81.4497 77.9263 81.193 77.6109 81.017C77.3029 80.8337 76.9619 80.742 76.5879 80.742C76.2139 80.742 75.8729 80.83 75.5649 81.006C75.2569 81.182 75.0113 81.4387 74.8279 81.776C74.6446 82.1133 74.5529 82.5093 74.5529 82.964C74.5529 83.426 74.6446 83.8293 74.8279 84.174C75.0113 84.5113 75.2569 84.7717 75.5649 84.955C75.8729 85.131 76.2139 85.219 76.5879 85.219C76.9619 85.219 77.3029 85.131 77.6109 84.955C77.9263 84.7717 78.1756 84.5113 78.3589 84.174C78.5423 83.8293 78.6339 83.4297 78.6339 82.975ZM86.8295 79.972L83.1995 88.838H82.1655L83.3535 85.934L80.9225 79.972H82.0335L83.9255 84.856L85.7955 79.972H86.8295ZM89.1698 84.614L87.9378 87.573H87.2668L88.0698 84.614H89.1698ZM93.5631 85.197C94.4944 84.449 95.2241 83.8367 95.7521 83.36C96.2801 82.876 96.7237 82.3737 97.0831 81.853C97.4497 81.325 97.6331 80.808 97.6331 80.302C97.6331 79.8253 97.5157 79.4513 97.2811 79.18C97.0537 78.9013 96.6834 78.762 96.1701 78.762C95.6714 78.762 95.2827 78.9197 95.0041 79.235C94.7327 79.543 94.5861 79.9573 94.5641 80.478H93.5961C93.6254 79.6567 93.8747 79.0223 94.3441 78.575C94.8134 78.1277 95.4184 77.904 96.1591 77.904C96.9144 77.904 97.5121 78.113 97.9521 78.531C98.3994 78.949 98.6231 79.5247 98.6231 80.258C98.6231 80.8667 98.4397 81.4607 98.0731 82.04C97.7137 82.612 97.3031 83.118 96.8411 83.558C96.3791 83.9907 95.7887 84.4967 95.0701 85.076H98.8541V85.912H93.5631V85.197ZM101.763 81.864C101.353 81.7027 101.037 81.468 100.817 81.16C100.597 80.852 100.487 80.478 100.487 80.038C100.487 79.642 100.586 79.2863 100.784 78.971C100.982 78.6483 101.276 78.3953 101.664 78.212C102.06 78.0213 102.537 77.926 103.094 77.926C103.652 77.926 104.125 78.0213 104.513 78.212C104.909 78.3953 105.206 78.6483 105.404 78.971C105.61 79.2863 105.712 79.642 105.712 80.038C105.712 80.4633 105.599 80.8373 105.371 81.16C105.144 81.4753 104.832 81.71 104.436 81.864C104.891 82.0033 105.25 82.249 105.514 82.601C105.786 82.9457 105.921 83.3637 105.921 83.855C105.921 84.3317 105.804 84.7497 105.569 85.109C105.335 85.461 105.001 85.736 104.568 85.934C104.143 86.1247 103.652 86.22 103.094 86.22C102.537 86.22 102.046 86.1247 101.62 85.934C101.202 85.736 100.876 85.461 100.641 85.109C100.407 84.7497 100.289 84.3317 100.289 83.855C100.289 83.3637 100.421 82.942 100.685 82.59C100.949 82.238 101.309 81.996 101.763 81.864ZM104.744 80.159C104.744 79.7117 104.598 79.367 104.304 79.125C104.011 78.883 103.608 78.762 103.094 78.762C102.588 78.762 102.189 78.883 101.895 79.125C101.602 79.367 101.455 79.7153 101.455 80.17C101.455 80.5807 101.606 80.9107 101.906 81.16C102.214 81.4093 102.61 81.534 103.094 81.534C103.586 81.534 103.982 81.4093 104.282 81.16C104.59 80.9033 104.744 80.5697 104.744 80.159ZM103.094 82.304C102.552 82.304 102.108 82.4323 101.763 82.689C101.419 82.9383 101.246 83.316 101.246 83.822C101.246 84.2913 101.411 84.669 101.741 84.955C102.079 85.241 102.53 85.384 103.094 85.384C103.659 85.384 104.106 85.241 104.436 84.955C104.766 84.669 104.931 84.2913 104.931 83.822C104.931 83.3307 104.763 82.9567 104.425 82.7C104.088 82.436 103.644 82.304 103.094 82.304ZM114.809 78.333V83.998C114.809 84.6287 114.615 85.1347 114.226 85.516C113.838 85.89 113.324 86.077 112.686 86.077C112.041 86.077 111.524 85.8863 111.135 85.505C110.747 85.1163 110.552 84.5883 110.552 83.921H111.553C111.561 84.295 111.656 84.5993 111.839 84.834C112.03 85.0687 112.312 85.186 112.686 85.186C113.06 85.186 113.339 85.076 113.522 84.856C113.706 84.6287 113.797 84.3427 113.797 83.998V78.333H114.809ZM122.427 79.972V86H121.426V85.109C121.236 85.417 120.968 85.659 120.623 85.835C120.286 86.0037 119.912 86.088 119.501 86.088C119.032 86.088 118.61 85.9927 118.236 85.802C117.862 85.604 117.565 85.3107 117.345 84.922C117.133 84.5333 117.026 84.0603 117.026 83.503V79.972H118.016V83.371C118.016 83.965 118.167 84.4233 118.467 84.746C118.768 85.0613 119.179 85.219 119.699 85.219C120.235 85.219 120.656 85.054 120.964 84.724C121.272 84.394 121.426 83.9137 121.426 83.283V79.972H122.427ZM127.354 79.862C128.088 79.862 128.682 80.0857 129.136 80.533C129.591 80.973 129.818 81.611 129.818 82.447V86H128.828V82.59C128.828 81.9887 128.678 81.5303 128.377 81.215C128.077 80.8923 127.666 80.731 127.145 80.731C126.617 80.731 126.196 80.896 125.88 81.226C125.572 81.556 125.418 82.0363 125.418 82.667V86H124.417V79.972H125.418V80.83C125.616 80.522 125.884 80.2837 126.221 80.115C126.566 79.9463 126.944 79.862 127.354 79.862ZM137.254 82.755C137.254 82.9457 137.243 83.1473 137.221 83.36H132.403C132.439 83.954 132.641 84.4197 133.008 84.757C133.382 85.087 133.833 85.252 134.361 85.252C134.793 85.252 135.153 85.153 135.439 84.955C135.732 84.7497 135.937 84.4783 136.055 84.141H137.133C136.971 84.7203 136.649 85.1933 136.165 85.56C135.681 85.9193 135.079 86.099 134.361 86.099C133.789 86.099 133.275 85.9707 132.821 85.714C132.373 85.4573 132.021 85.0943 131.765 84.625C131.508 84.1483 131.38 83.5983 131.38 82.975C131.38 82.3517 131.504 81.8053 131.754 81.336C132.003 80.8667 132.351 80.5073 132.799 80.258C133.253 80.0013 133.774 79.873 134.361 79.873C134.933 79.873 135.439 79.9977 135.879 80.247C136.319 80.4963 136.656 80.841 136.891 81.281C137.133 81.7137 137.254 82.205 137.254 82.755ZM136.22 82.546C136.22 82.1647 136.135 81.8383 135.967 81.567C135.798 81.2883 135.567 81.0793 135.274 80.94C134.988 80.7933 134.669 80.72 134.317 80.72C133.811 80.72 133.378 80.8813 133.019 81.204C132.667 81.5267 132.465 81.974 132.414 82.546H136.22ZM141.821 85.197C142.753 84.449 143.482 83.8367 144.01 83.36C144.538 82.876 144.982 82.3737 145.341 81.853C145.708 81.325 145.891 80.808 145.891 80.302C145.891 79.8253 145.774 79.4513 145.539 79.18C145.312 78.9013 144.942 78.762 144.428 78.762C143.93 78.762 143.541 78.9197 143.262 79.235C142.991 79.543 142.844 79.9573 142.822 80.478H141.854C141.884 79.6567 142.133 79.0223 142.602 78.575C143.072 78.1277 143.677 77.904 144.417 77.904C145.173 77.904 145.77 78.113 146.21 78.531C146.658 78.949 146.881 79.5247 146.881 80.258C146.881 80.8667 146.698 81.4607 146.331 82.04C145.972 82.612 145.561 83.118 145.099 83.558C144.637 83.9907 144.047 84.4967 143.328 85.076H147.112V85.912H141.821V85.197ZM148.57 81.941C148.57 80.6797 148.775 79.697 149.186 78.993C149.596 78.2817 150.315 77.926 151.342 77.926C152.361 77.926 153.076 78.2817 153.487 78.993C153.897 79.697 154.103 80.6797 154.103 81.941C154.103 83.2243 153.897 84.2217 153.487 84.933C153.076 85.6443 152.361 86 151.342 86C150.315 86 149.596 85.6443 149.186 84.933C148.775 84.2217 148.57 83.2243 148.57 81.941ZM153.113 81.941C153.113 81.303 153.069 80.764 152.981 80.324C152.9 79.8767 152.728 79.5173 152.464 79.246C152.207 78.9747 151.833 78.839 151.342 78.839C150.843 78.839 150.462 78.9747 150.198 79.246C149.941 79.5173 149.769 79.8767 149.681 80.324C149.6 80.764 149.56 81.303 149.56 81.941C149.56 82.601 149.6 83.1547 149.681 83.602C149.769 84.0493 149.941 84.4087 150.198 84.68C150.462 84.9513 150.843 85.087 151.342 85.087C151.833 85.087 152.207 84.9513 152.464 84.68C152.728 84.4087 152.9 84.0493 152.981 83.602C153.069 83.1547 153.113 82.601 153.113 81.941ZM155.656 85.197C156.587 84.449 157.317 83.8367 157.845 83.36C158.373 82.876 158.816 82.3737 159.176 81.853C159.542 81.325 159.726 80.808 159.726 80.302C159.726 79.8253 159.608 79.4513 159.374 79.18C159.146 78.9013 158.776 78.762 158.263 78.762C157.764 78.762 157.375 78.9197 157.097 79.235C156.825 79.543 156.679 79.9573 156.657 80.478H155.689C155.718 79.6567 155.967 79.0223 156.437 78.575C156.906 78.1277 157.511 77.904 158.252 77.904C159.007 77.904 159.605 78.113 160.045 78.531C160.492 78.949 160.716 79.5247 160.716 80.258C160.716 80.8667 160.532 81.4607 160.166 82.04C159.806 82.612 159.396 83.118 158.934 83.558C158.472 83.9907 157.881 84.4967 157.163 85.076H160.947V85.912H155.656V85.197ZM162.14 78.96V78.047H164.208V86H163.196V78.96H162.14Z" fill="#828282"></path>
<rect x="19" y="244" width="362" height="37" rx="10" fill="#1294F2"></rect>
<path d="M155.664 257.228V264.088C155.664 265.04 155.389 265.782 154.838 266.314C154.287 266.837 153.55 267.098 152.626 267.098C151.693 267.098 150.937 266.827 150.358 266.286C149.789 265.745 149.504 264.989 149.504 264.018H151.464C151.473 264.438 151.571 264.765 151.758 264.998C151.954 265.231 152.234 265.348 152.598 265.348C152.953 265.348 153.223 265.236 153.41 265.012C153.597 264.788 153.69 264.48 153.69 264.088V257.228H155.664ZM161.694 267.126C160.948 267.126 160.276 266.963 159.678 266.636C159.081 266.3 158.61 265.829 158.264 265.222C157.928 264.615 157.76 263.915 157.76 263.122C157.76 262.329 157.933 261.629 158.278 261.022C158.633 260.415 159.114 259.949 159.72 259.622C160.327 259.286 161.004 259.118 161.75 259.118C162.497 259.118 163.174 259.286 163.78 259.622C164.387 259.949 164.863 260.415 165.208 261.022C165.563 261.629 165.74 262.329 165.74 263.122C165.74 263.915 165.558 264.615 165.194 265.222C164.84 265.829 164.354 266.3 163.738 266.636C163.132 266.963 162.45 267.126 161.694 267.126ZM161.694 265.418C162.049 265.418 162.38 265.334 162.688 265.166C163.006 264.989 163.258 264.727 163.444 264.382C163.631 264.037 163.724 263.617 163.724 263.122C163.724 262.385 163.528 261.82 163.136 261.428C162.754 261.027 162.282 260.826 161.722 260.826C161.162 260.826 160.691 261.027 160.308 261.428C159.935 261.82 159.748 262.385 159.748 263.122C159.748 263.859 159.93 264.429 160.294 264.83C160.668 265.222 161.134 265.418 161.694 265.418ZM168.472 258.32C168.127 258.32 167.837 258.213 167.604 257.998C167.38 257.774 167.268 257.499 167.268 257.172C167.268 256.845 167.38 256.575 167.604 256.36C167.837 256.136 168.127 256.024 168.472 256.024C168.817 256.024 169.102 256.136 169.326 256.36C169.559 256.575 169.676 256.845 169.676 257.172C169.676 257.499 169.559 257.774 169.326 257.998C169.102 258.213 168.817 258.32 168.472 258.32ZM169.438 259.244V267H167.478V259.244H169.438ZM175.973 259.132C176.897 259.132 177.643 259.426 178.213 260.014C178.782 260.593 179.067 261.405 179.067 262.45V267H177.107V262.716C177.107 262.1 176.953 261.629 176.645 261.302C176.337 260.966 175.917 260.798 175.385 260.798C174.843 260.798 174.414 260.966 174.097 261.302C173.789 261.629 173.635 262.1 173.635 262.716V267H171.675V259.244H173.635V260.21C173.896 259.874 174.227 259.613 174.629 259.426C175.039 259.23 175.487 259.132 175.973 259.132ZM187.148 260.854V264.606C187.148 264.867 187.209 265.059 187.33 265.18C187.461 265.292 187.676 265.348 187.974 265.348H188.884V267H187.652C186 267 185.174 266.197 185.174 264.592V260.854H184.25V259.244H185.174V257.326H187.148V259.244H188.884V260.854H187.148ZM194.962 259.132C195.55 259.132 196.073 259.263 196.53 259.524C196.987 259.776 197.342 260.154 197.594 260.658C197.855 261.153 197.986 261.75 197.986 262.45V267H196.026V262.716C196.026 262.1 195.872 261.629 195.564 261.302C195.256 260.966 194.836 260.798 194.304 260.798C193.763 260.798 193.333 260.966 193.016 261.302C192.708 261.629 192.554 262.1 192.554 262.716V267H190.594V256.64H192.554V260.21C192.806 259.874 193.142 259.613 193.562 259.426C193.982 259.23 194.449 259.132 194.962 259.132ZM207.36 262.954C207.36 263.234 207.341 263.486 207.304 263.71H201.634C201.681 264.27 201.877 264.709 202.222 265.026C202.567 265.343 202.992 265.502 203.496 265.502C204.224 265.502 204.742 265.189 205.05 264.564H207.164C206.94 265.311 206.511 265.927 205.876 266.412C205.241 266.888 204.462 267.126 203.538 267.126C202.791 267.126 202.119 266.963 201.522 266.636C200.934 266.3 200.472 265.829 200.136 265.222C199.809 264.615 199.646 263.915 199.646 263.122C199.646 262.319 199.809 261.615 200.136 261.008C200.463 260.401 200.92 259.935 201.508 259.608C202.096 259.281 202.773 259.118 203.538 259.118C204.275 259.118 204.933 259.277 205.512 259.594C206.1 259.911 206.553 260.364 206.87 260.952C207.197 261.531 207.36 262.198 207.36 262.954ZM205.33 262.394C205.321 261.89 205.139 261.489 204.784 261.19C204.429 260.882 203.995 260.728 203.482 260.728C202.997 260.728 202.586 260.877 202.25 261.176C201.923 261.465 201.723 261.871 201.648 262.394H205.33ZM212.223 263.122C212.223 262.319 212.386 261.619 212.713 261.022C213.039 260.415 213.492 259.949 214.071 259.622C214.649 259.286 215.312 259.118 216.059 259.118C217.02 259.118 217.813 259.361 218.439 259.846C219.073 260.322 219.498 260.994 219.713 261.862H217.599C217.487 261.526 217.295 261.265 217.025 261.078C216.763 260.882 216.437 260.784 216.045 260.784C215.485 260.784 215.041 260.989 214.715 261.4C214.388 261.801 214.225 262.375 214.225 263.122C214.225 263.859 214.388 264.433 214.715 264.844C215.041 265.245 215.485 265.446 216.045 265.446C216.838 265.446 217.356 265.091 217.599 264.382H219.713C219.498 265.222 219.073 265.889 218.439 266.384C217.804 266.879 217.011 267.126 216.059 267.126C215.312 267.126 214.649 266.963 214.071 266.636C213.492 266.3 213.039 265.833 212.713 265.236C212.386 264.629 212.223 263.925 212.223 263.122ZM223.408 256.64V267H221.448V256.64H223.408ZM225.141 263.094C225.141 262.31 225.295 261.615 225.603 261.008C225.92 260.401 226.345 259.935 226.877 259.608C227.418 259.281 228.02 259.118 228.683 259.118C229.262 259.118 229.766 259.235 230.195 259.468C230.634 259.701 230.984 259.995 231.245 260.35V259.244H233.219V267H231.245V265.866C230.993 266.23 230.643 266.533 230.195 266.776C229.756 267.009 229.248 267.126 228.669 267.126C228.016 267.126 227.418 266.958 226.877 266.622C226.345 266.286 225.92 265.815 225.603 265.208C225.295 264.592 225.141 263.887 225.141 263.094ZM231.245 263.122C231.245 262.646 231.152 262.24 230.965 261.904C230.778 261.559 230.526 261.297 230.209 261.12C229.892 260.933 229.551 260.84 229.187 260.84C228.823 260.84 228.487 260.929 228.179 261.106C227.871 261.283 227.619 261.545 227.423 261.89C227.236 262.226 227.143 262.627 227.143 263.094C227.143 263.561 227.236 263.971 227.423 264.326C227.619 264.671 227.871 264.937 228.179 265.124C228.496 265.311 228.832 265.404 229.187 265.404C229.551 265.404 229.892 265.315 230.209 265.138C230.526 264.951 230.778 264.69 230.965 264.354C231.152 264.009 231.245 263.598 231.245 263.122ZM238.401 267.126C237.767 267.126 237.197 267.014 236.693 266.79C236.189 266.557 235.788 266.244 235.489 265.852C235.2 265.46 235.041 265.026 235.013 264.55H236.987C237.025 264.849 237.169 265.096 237.421 265.292C237.683 265.488 238.005 265.586 238.387 265.586C238.761 265.586 239.05 265.511 239.255 265.362C239.47 265.213 239.577 265.021 239.577 264.788C239.577 264.536 239.447 264.349 239.185 264.228C238.933 264.097 238.527 263.957 237.967 263.808C237.389 263.668 236.913 263.523 236.539 263.374C236.175 263.225 235.858 262.996 235.587 262.688C235.326 262.38 235.195 261.965 235.195 261.442C235.195 261.013 235.317 260.621 235.559 260.266C235.811 259.911 236.166 259.631 236.623 259.426C237.09 259.221 237.636 259.118 238.261 259.118C239.185 259.118 239.923 259.351 240.473 259.818C241.024 260.275 241.327 260.896 241.383 261.68H239.507C239.479 261.372 239.349 261.129 239.115 260.952C238.891 260.765 238.588 260.672 238.205 260.672C237.851 260.672 237.575 260.737 237.379 260.868C237.193 260.999 237.099 261.181 237.099 261.414C237.099 261.675 237.23 261.876 237.491 262.016C237.753 262.147 238.159 262.282 238.709 262.422C239.269 262.562 239.731 262.707 240.095 262.856C240.459 263.005 240.772 263.239 241.033 263.556C241.304 263.864 241.444 264.275 241.453 264.788C241.453 265.236 241.327 265.637 241.075 265.992C240.833 266.347 240.478 266.627 240.011 266.832C239.554 267.028 239.017 267.126 238.401 267.126ZM246.33 267.126C245.695 267.126 245.126 267.014 244.622 266.79C244.118 266.557 243.717 266.244 243.418 265.852C243.129 265.46 242.97 265.026 242.942 264.55H244.916C244.953 264.849 245.098 265.096 245.35 265.292C245.611 265.488 245.933 265.586 246.316 265.586C246.689 265.586 246.979 265.511 247.184 265.362C247.399 265.213 247.506 265.021 247.506 264.788C247.506 264.536 247.375 264.349 247.114 264.228C246.862 264.097 246.456 263.957 245.896 263.808C245.317 263.668 244.841 263.523 244.468 263.374C244.104 263.225 243.787 262.996 243.516 262.688C243.255 262.38 243.124 261.965 243.124 261.442C243.124 261.013 243.245 260.621 243.488 260.266C243.74 259.911 244.095 259.631 244.552 259.426C245.019 259.221 245.565 259.118 246.19 259.118C247.114 259.118 247.851 259.351 248.402 259.818C248.953 260.275 249.256 260.896 249.312 261.68H247.436C247.408 261.372 247.277 261.129 247.044 260.952C246.82 260.765 246.517 260.672 246.134 260.672C245.779 260.672 245.504 260.737 245.308 260.868C245.121 260.999 245.028 261.181 245.028 261.414C245.028 261.675 245.159 261.876 245.42 262.016C245.681 262.147 246.087 262.282 246.638 262.422C247.198 262.562 247.66 262.707 248.024 262.856C248.388 263.005 248.701 263.239 248.962 263.556C249.233 263.864 249.373 264.275 249.382 264.788C249.382 265.236 249.256 265.637 249.004 265.992C248.761 266.347 248.407 266.627 247.94 266.832C247.483 267.028 246.946 267.126 246.33 267.126Z" fill="white"></path>
<path d="M25.952 160.091C25.3453 160.091 24.7993 159.987 24.314 159.779C23.8287 159.562 23.4473 159.259 23.17 158.869C22.8927 158.479 22.754 158.024 22.754 157.504H24.34C24.3747 157.894 24.5263 158.215 24.795 158.466C25.0723 158.717 25.458 158.843 25.952 158.843C26.4633 158.843 26.862 158.722 27.148 158.479C27.434 158.228 27.577 157.907 27.577 157.517C27.577 157.214 27.486 156.967 27.304 156.776C27.1307 156.585 26.9097 156.438 26.641 156.334C26.381 156.23 26.017 156.117 25.549 155.996C24.9597 155.84 24.4787 155.684 24.106 155.528C23.742 155.363 23.43 155.112 23.17 154.774C22.91 154.436 22.78 153.985 22.78 153.422C22.78 152.902 22.91 152.447 23.17 152.057C23.43 151.667 23.794 151.368 24.262 151.16C24.73 150.952 25.2717 150.848 25.887 150.848C26.7623 150.848 27.4773 151.069 28.032 151.511C28.5953 151.944 28.9073 152.542 28.968 153.305H27.33C27.304 152.976 27.148 152.694 26.862 152.46C26.576 152.226 26.199 152.109 25.731 152.109C25.3063 152.109 24.9597 152.217 24.691 152.434C24.4223 152.651 24.288 152.963 24.288 153.37C24.288 153.647 24.3703 153.877 24.535 154.059C24.7083 154.232 24.925 154.371 25.185 154.475C25.445 154.579 25.8003 154.692 26.251 154.813C26.849 154.978 27.3343 155.142 27.707 155.307C28.0883 155.472 28.409 155.727 28.669 156.074C28.9377 156.412 29.072 156.867 29.072 157.439C29.072 157.898 28.9463 158.332 28.695 158.739C28.4523 159.146 28.0927 159.476 27.616 159.727C27.148 159.97 26.5933 160.091 25.952 160.091ZM32.8497 154.046V158.011C32.8497 158.28 32.9104 158.475 33.0317 158.596C33.1617 158.709 33.3784 158.765 33.6817 158.765H34.5917V160H33.4217C32.7544 160 32.243 159.844 31.8877 159.532C31.5324 159.22 31.3547 158.713 31.3547 158.011V154.046H30.5097V152.837H31.3547V151.056H32.8497V152.837H34.5917V154.046H32.8497ZM42.7446 152.837V160H41.2626V159.155C41.0286 159.45 40.721 159.684 40.3396 159.857C39.967 160.022 39.5683 160.104 39.1436 160.104C38.5803 160.104 38.0733 159.987 37.6226 159.753C37.1806 159.519 36.8296 159.172 36.5696 158.713C36.3183 158.254 36.1926 157.699 36.1926 157.049V152.837H37.6616V156.828C37.6616 157.469 37.822 157.963 38.1426 158.31C38.4633 158.648 38.901 158.817 39.4556 158.817C40.0103 158.817 40.448 158.648 40.7686 158.31C41.098 157.963 41.2626 157.469 41.2626 156.828V152.837H42.7446ZM44.506 156.386C44.506 155.667 44.6533 155.03 44.948 154.475C45.2513 153.92 45.6587 153.491 46.17 153.188C46.69 152.876 47.2663 152.72 47.899 152.72C48.367 152.72 48.8263 152.824 49.277 153.032C49.7363 153.231 50.1003 153.5 50.369 153.838V150.38H51.864V160H50.369V158.921C50.1263 159.268 49.7883 159.554 49.355 159.779C48.9303 160.004 48.4407 160.117 47.886 160.117C47.262 160.117 46.69 159.961 46.17 159.649C45.6587 159.328 45.2513 158.886 44.948 158.323C44.6533 157.751 44.506 157.105 44.506 156.386ZM50.369 156.412C50.369 155.918 50.265 155.489 50.057 155.125C49.8577 154.761 49.5933 154.484 49.264 154.293C48.9347 154.102 48.5793 154.007 48.198 154.007C47.8167 154.007 47.4613 154.102 47.132 154.293C46.8027 154.475 46.534 154.748 46.326 155.112C46.1267 155.467 46.027 155.892 46.027 156.386C46.027 156.88 46.1267 157.313 46.326 157.686C46.534 158.059 46.8027 158.345 47.132 158.544C47.47 158.735 47.8253 158.83 48.198 158.83C48.5793 158.83 48.9347 158.735 49.264 158.544C49.5933 158.353 49.8577 158.076 50.057 157.712C50.265 157.339 50.369 156.906 50.369 156.412ZM60.6755 156.243C60.6755 156.512 60.6582 156.754 60.6235 156.971H55.1505C55.1939 157.543 55.4062 158.002 55.7875 158.349C56.1689 158.696 56.6369 158.869 57.1915 158.869C57.9889 158.869 58.5522 158.535 58.8815 157.868H60.4805C60.2639 158.527 59.8695 159.068 59.2975 159.493C58.7342 159.909 58.0322 160.117 57.1915 160.117C56.5069 160.117 55.8915 159.965 55.3455 159.662C54.8082 159.35 54.3835 158.917 54.0715 158.362C53.7682 157.799 53.6165 157.149 53.6165 156.412C53.6165 155.675 53.7639 155.03 54.0585 154.475C54.3619 153.912 54.7822 153.478 55.3195 153.175C55.8655 152.872 56.4895 152.72 57.1915 152.72C57.8675 152.72 58.4699 152.867 58.9985 153.162C59.5272 153.457 59.9389 153.873 60.2335 154.41C60.5282 154.939 60.6755 155.55 60.6755 156.243ZM59.1285 155.775C59.1199 155.229 58.9249 154.791 58.5435 154.462C58.1622 154.133 57.6899 153.968 57.1265 153.968C56.6152 153.968 56.1775 154.133 55.8135 154.462C55.4495 154.783 55.2329 155.22 55.1635 155.775H59.1285ZM66.048 152.72C66.6113 152.72 67.114 152.837 67.556 153.071C68.0067 153.305 68.3577 153.652 68.609 154.111C68.8603 154.57 68.986 155.125 68.986 155.775V160H67.517V155.996C67.517 155.355 67.3567 154.865 67.036 154.527C66.7153 154.18 66.2777 154.007 65.723 154.007C65.1683 154.007 64.7263 154.18 64.397 154.527C64.0763 154.865 63.916 155.355 63.916 155.996V160H62.434V152.837H63.916V153.656C64.1587 153.361 64.4663 153.132 64.839 152.967C65.2203 152.802 65.6233 152.72 66.048 152.72ZM72.9054 154.046V158.011C72.9054 158.28 72.966 158.475 73.0874 158.596C73.2174 158.709 73.434 158.765 73.7374 158.765H74.6474V160H73.4774C72.81 160 72.2987 159.844 71.9434 159.532C71.588 159.22 71.4104 158.713 71.4104 158.011V154.046H70.5654V152.837H71.4104V151.056H72.9054V152.837H74.6474V154.046H72.9054ZM78.9133 160.117C78.3499 160.117 77.8429 160.017 77.3923 159.818C76.9503 159.61 76.5993 159.333 76.3393 158.986C76.0793 158.631 75.9406 158.236 75.9233 157.803H77.4573C77.4833 158.106 77.6263 158.362 77.8863 158.57C78.1549 158.769 78.4886 158.869 78.8873 158.869C79.3033 158.869 79.6239 158.791 79.8493 158.635C80.0833 158.47 80.2003 158.262 80.2003 158.011C80.2003 157.742 80.0703 157.543 79.8103 157.413C79.5589 157.283 79.1559 157.14 78.6013 156.984C78.0639 156.837 77.6263 156.694 77.2883 156.555C76.9503 156.416 76.6556 156.204 76.4043 155.918C76.1616 155.632 76.0403 155.255 76.0403 154.787C76.0403 154.406 76.1529 154.059 76.3783 153.747C76.6036 153.426 76.9243 153.175 77.3403 152.993C77.7649 152.811 78.2503 152.72 78.7963 152.72C79.6109 152.72 80.2653 152.928 80.7593 153.344C81.2619 153.751 81.5306 154.31 81.5653 155.021H80.0833C80.0573 154.7 79.9273 154.445 79.6933 154.254C79.4593 154.063 79.1429 153.968 78.7443 153.968C78.3543 153.968 78.0553 154.042 77.8473 154.189C77.6393 154.336 77.5353 154.531 77.5353 154.774C77.5353 154.965 77.6046 155.125 77.7433 155.255C77.8819 155.385 78.0509 155.489 78.2503 155.567C78.4496 155.636 78.7443 155.727 79.1343 155.84C79.6543 155.979 80.0789 156.122 80.4083 156.269C80.7463 156.408 81.0366 156.616 81.2793 156.893C81.5219 157.17 81.6476 157.539 81.6563 157.998C81.6563 158.405 81.5436 158.769 81.3183 159.09C81.0929 159.411 80.7723 159.662 80.3563 159.844C79.9489 160.026 79.4679 160.117 78.9133 160.117Z" fill="#121212"></path>
<path opacity="0.7" d="M134.567 195.403H132.224V197.779H131.289V195.403H128.957V194.556H131.289V192.169H132.224V194.556H134.567V195.403ZM140.002 198.197C140.934 197.449 141.663 196.837 142.191 196.36C142.719 195.876 143.163 195.374 143.522 194.853C143.889 194.325 144.072 193.808 144.072 193.302C144.072 192.825 143.955 192.451 143.72 192.18C143.493 191.901 143.123 191.762 142.609 191.762C142.111 191.762 141.722 191.92 141.443 192.235C141.172 192.543 141.025 192.957 141.003 193.478H140.035C140.065 192.657 140.314 192.022 140.783 191.575C141.253 191.128 141.858 190.904 142.598 190.904C143.354 190.904 143.951 191.113 144.391 191.531C144.839 191.949 145.062 192.525 145.062 193.258C145.062 193.867 144.879 194.461 144.512 195.04C144.153 195.612 143.742 196.118 143.28 196.558C142.818 196.991 142.228 197.497 141.509 198.076H145.293V198.912H140.002V198.197ZM152.022 191.916H148.161V194.424C148.329 194.189 148.579 193.999 148.909 193.852C149.239 193.698 149.594 193.621 149.976 193.621C150.584 193.621 151.079 193.749 151.461 194.006C151.842 194.255 152.113 194.582 152.275 194.985C152.443 195.381 152.528 195.803 152.528 196.25C152.528 196.778 152.429 197.251 152.231 197.669C152.033 198.087 151.728 198.417 151.318 198.659C150.914 198.901 150.412 199.022 149.811 199.022C149.041 199.022 148.417 198.824 147.941 198.428C147.464 198.032 147.174 197.504 147.072 196.844H148.051C148.146 197.262 148.348 197.588 148.656 197.823C148.964 198.058 149.352 198.175 149.822 198.175C150.401 198.175 150.837 198.003 151.131 197.658C151.424 197.306 151.571 196.844 151.571 196.272C151.571 195.7 151.424 195.26 151.131 194.952C150.837 194.637 150.405 194.479 149.833 194.479C149.444 194.479 149.103 194.574 148.81 194.765C148.524 194.948 148.315 195.201 148.183 195.524H147.237V191.036H152.022V191.916ZM158.956 194.083C159.154 193.738 159.448 193.452 159.836 193.225C160.232 192.99 160.691 192.873 161.211 192.873C161.747 192.873 162.231 193.001 162.663 193.258C163.103 193.515 163.448 193.878 163.697 194.347C163.947 194.809 164.071 195.348 164.071 195.964C164.071 196.573 163.947 197.115 163.697 197.592C163.448 198.069 163.103 198.439 162.663 198.703C162.231 198.967 161.747 199.099 161.211 199.099C160.698 199.099 160.243 198.985 159.847 198.758C159.459 198.523 159.162 198.234 158.956 197.889V201.86H157.955V192.972H158.956V194.083ZM163.048 195.964C163.048 195.509 162.957 195.113 162.773 194.776C162.59 194.439 162.341 194.182 162.025 194.006C161.717 193.83 161.376 193.742 161.002 193.742C160.636 193.742 160.295 193.834 159.979 194.017C159.671 194.193 159.422 194.453 159.231 194.798C159.048 195.135 158.956 195.528 158.956 195.975C158.956 196.43 159.048 196.829 159.231 197.174C159.422 197.511 159.671 197.772 159.979 197.955C160.295 198.131 160.636 198.219 161.002 198.219C161.376 198.219 161.717 198.131 162.025 197.955C162.341 197.772 162.59 197.511 162.773 197.174C162.957 196.829 163.048 196.426 163.048 195.964ZM171.389 195.755C171.389 195.946 171.378 196.147 171.356 196.36H166.538C166.575 196.954 166.776 197.42 167.143 197.757C167.517 198.087 167.968 198.252 168.496 198.252C168.929 198.252 169.288 198.153 169.574 197.955C169.867 197.75 170.073 197.478 170.19 197.141H171.268C171.107 197.72 170.784 198.193 170.3 198.56C169.816 198.919 169.215 199.099 168.496 199.099C167.924 199.099 167.411 198.971 166.956 198.714C166.509 198.457 166.157 198.094 165.9 197.625C165.643 197.148 165.515 196.598 165.515 195.975C165.515 195.352 165.64 194.805 165.889 194.336C166.138 193.867 166.487 193.507 166.934 193.258C167.389 193.001 167.909 192.873 168.496 192.873C169.068 192.873 169.574 192.998 170.014 193.247C170.454 193.496 170.791 193.841 171.026 194.281C171.268 194.714 171.389 195.205 171.389 195.755ZM170.355 195.546C170.355 195.165 170.271 194.838 170.102 194.567C169.933 194.288 169.702 194.079 169.409 193.94C169.123 193.793 168.804 193.72 168.452 193.72C167.946 193.72 167.513 193.881 167.154 194.204C166.802 194.527 166.6 194.974 166.549 195.546H170.355ZM175.839 199.099C175.275 199.099 174.761 198.971 174.299 198.714C173.845 198.457 173.485 198.094 173.221 197.625C172.965 197.148 172.836 196.598 172.836 195.975C172.836 195.359 172.968 194.816 173.232 194.347C173.504 193.87 173.87 193.507 174.332 193.258C174.794 193.001 175.311 192.873 175.883 192.873C176.455 192.873 176.972 193.001 177.434 193.258C177.896 193.507 178.259 193.867 178.523 194.336C178.795 194.805 178.93 195.352 178.93 195.975C178.93 196.598 178.791 197.148 178.512 197.625C178.241 198.094 177.871 198.457 177.401 198.714C176.932 198.971 176.411 199.099 175.839 199.099ZM175.839 198.219C176.199 198.219 176.536 198.135 176.851 197.966C177.167 197.797 177.42 197.544 177.61 197.207C177.808 196.87 177.907 196.459 177.907 195.975C177.907 195.491 177.812 195.08 177.621 194.743C177.431 194.406 177.181 194.156 176.873 193.995C176.565 193.826 176.232 193.742 175.872 193.742C175.506 193.742 175.168 193.826 174.86 193.995C174.56 194.156 174.318 194.406 174.134 194.743C173.951 195.08 173.859 195.491 173.859 195.975C173.859 196.466 173.947 196.881 174.123 197.218C174.307 197.555 174.549 197.808 174.849 197.977C175.15 198.138 175.48 198.219 175.839 198.219ZM181.747 194.083C181.945 193.738 182.239 193.452 182.627 193.225C183.023 192.99 183.482 192.873 184.002 192.873C184.538 192.873 185.022 193.001 185.454 193.258C185.894 193.515 186.239 193.878 186.488 194.347C186.738 194.809 186.862 195.348 186.862 195.964C186.862 196.573 186.738 197.115 186.488 197.592C186.239 198.069 185.894 198.439 185.454 198.703C185.022 198.967 184.538 199.099 184.002 199.099C183.489 199.099 183.034 198.985 182.638 198.758C182.25 198.523 181.953 198.234 181.747 197.889V201.86H180.746V192.972H181.747V194.083ZM185.839 195.964C185.839 195.509 185.748 195.113 185.564 194.776C185.381 194.439 185.132 194.182 184.816 194.006C184.508 193.83 184.167 193.742 183.793 193.742C183.427 193.742 183.086 193.834 182.77 194.017C182.462 194.193 182.213 194.453 182.022 194.798C181.839 195.135 181.747 195.528 181.747 195.975C181.747 196.43 181.839 196.829 182.022 197.174C182.213 197.511 182.462 197.772 182.77 197.955C183.086 198.131 183.427 198.219 183.793 198.219C184.167 198.219 184.508 198.131 184.816 197.955C185.132 197.772 185.381 197.511 185.564 197.174C185.748 196.829 185.839 196.426 185.839 195.964ZM189.681 190.86V199H188.68V190.86H189.681ZM197.387 195.755C197.387 195.946 197.376 196.147 197.354 196.36H192.536C192.573 196.954 192.774 197.42 193.141 197.757C193.515 198.087 193.966 198.252 194.494 198.252C194.927 198.252 195.286 198.153 195.572 197.955C195.865 197.75 196.071 197.478 196.188 197.141H197.266C197.105 197.72 196.782 198.193 196.298 198.56C195.814 198.919 195.213 199.099 194.494 199.099C193.922 199.099 193.409 198.971 192.954 198.714C192.507 198.457 192.155 198.094 191.898 197.625C191.641 197.148 191.513 196.598 191.513 195.975C191.513 195.352 191.638 194.805 191.887 194.336C192.136 193.867 192.485 193.507 192.932 193.258C193.387 193.001 193.907 192.873 194.494 192.873C195.066 192.873 195.572 192.998 196.012 193.247C196.452 193.496 196.789 193.841 197.024 194.281C197.266 194.714 197.387 195.205 197.387 195.755ZM196.353 195.546C196.353 195.165 196.269 194.838 196.1 194.567C195.931 194.288 195.7 194.079 195.407 193.94C195.121 193.793 194.802 193.72 194.45 193.72C193.944 193.72 193.511 193.881 193.152 194.204C192.8 194.527 192.598 194.974 192.547 195.546H196.353ZM203.18 191.993C202.989 191.993 202.828 191.927 202.696 191.795C202.571 191.663 202.509 191.502 202.509 191.311C202.509 191.12 202.571 190.959 202.696 190.827C202.828 190.695 202.989 190.629 203.18 190.629C203.371 190.629 203.528 190.695 203.653 190.827C203.785 190.959 203.851 191.12 203.851 191.311C203.851 191.502 203.785 191.663 203.653 191.795C203.528 191.927 203.371 191.993 203.18 191.993ZM203.675 200.309C203.675 200.844 203.539 201.237 203.268 201.486C202.997 201.735 202.601 201.86 202.08 201.86H201.497V201.013H201.915C202.194 201.013 202.388 200.958 202.498 200.848C202.615 200.738 202.674 200.551 202.674 200.287V192.972H203.675V200.309ZM208.498 199.099C207.934 199.099 207.42 198.971 206.958 198.714C206.504 198.457 206.144 198.094 205.88 197.625C205.624 197.148 205.495 196.598 205.495 195.975C205.495 195.359 205.627 194.816 205.891 194.347C206.163 193.87 206.529 193.507 206.991 193.258C207.453 193.001 207.97 192.873 208.542 192.873C209.114 192.873 209.631 193.001 210.093 193.258C210.555 193.507 210.918 193.867 211.182 194.336C211.454 194.805 211.589 195.352 211.589 195.975C211.589 196.598 211.45 197.148 211.171 197.625C210.9 198.094 210.53 198.457 210.06 198.714C209.591 198.971 209.07 199.099 208.498 199.099ZM208.498 198.219C208.858 198.219 209.195 198.135 209.51 197.966C209.826 197.797 210.079 197.544 210.269 197.207C210.467 196.87 210.566 196.459 210.566 195.975C210.566 195.491 210.471 195.08 210.28 194.743C210.09 194.406 209.84 194.156 209.532 193.995C209.224 193.826 208.891 193.742 208.531 193.742C208.165 193.742 207.827 193.826 207.519 193.995C207.219 194.156 206.977 194.406 206.793 194.743C206.61 195.08 206.518 195.491 206.518 195.975C206.518 196.466 206.606 196.881 206.782 197.218C206.966 197.555 207.208 197.808 207.508 197.977C207.809 198.138 208.139 198.219 208.498 198.219ZM213.923 191.993C213.732 191.993 213.571 191.927 213.439 191.795C213.307 191.663 213.241 191.502 213.241 191.311C213.241 191.12 213.307 190.959 213.439 190.827C213.571 190.695 213.732 190.629 213.923 190.629C214.106 190.629 214.26 190.695 214.385 190.827C214.517 190.959 214.583 191.12 214.583 191.311C214.583 191.502 214.517 191.663 214.385 191.795C214.26 191.927 214.106 191.993 213.923 191.993ZM214.407 192.972V199H213.406V192.972H214.407ZM219.55 192.862C220.283 192.862 220.877 193.086 221.332 193.533C221.786 193.973 222.014 194.611 222.014 195.447V199H221.024V195.59C221.024 194.989 220.873 194.53 220.573 194.215C220.272 193.892 219.861 193.731 219.341 193.731C218.813 193.731 218.391 193.896 218.076 194.226C217.768 194.556 217.614 195.036 217.614 195.667V199H216.613V192.972H217.614V193.83C217.812 193.522 218.079 193.284 218.417 193.115C218.761 192.946 219.139 192.862 219.55 192.862ZM229.649 195.755C229.649 195.946 229.638 196.147 229.616 196.36H224.798C224.834 196.954 225.036 197.42 225.403 197.757C225.777 198.087 226.228 198.252 226.756 198.252C227.188 198.252 227.548 198.153 227.834 197.955C228.127 197.75 228.332 197.478 228.45 197.141H229.528C229.366 197.72 229.044 198.193 228.56 198.56C228.076 198.919 227.474 199.099 226.756 199.099C226.184 199.099 225.67 198.971 225.216 198.714C224.768 198.457 224.416 198.094 224.16 197.625C223.903 197.148 223.775 196.598 223.775 195.975C223.775 195.352 223.899 194.805 224.149 194.336C224.398 193.867 224.746 193.507 225.194 193.258C225.648 193.001 226.169 192.873 226.756 192.873C227.328 192.873 227.834 192.998 228.274 193.247C228.714 193.496 229.051 193.841 229.286 194.281C229.528 194.714 229.649 195.205 229.649 195.755ZM228.615 195.546C228.615 195.165 228.53 194.838 228.362 194.567C228.193 194.288 227.962 194.079 227.669 193.94C227.383 193.793 227.064 193.72 226.712 193.72C226.206 193.72 225.773 193.881 225.414 194.204C225.062 194.527 224.86 194.974 224.809 195.546H228.615ZM231.096 195.964C231.096 195.348 231.221 194.809 231.47 194.347C231.719 193.878 232.06 193.515 232.493 193.258C232.933 193.001 233.424 192.873 233.967 192.873C234.436 192.873 234.873 192.983 235.276 193.203C235.679 193.416 235.987 193.698 236.2 194.05V190.86H237.212V199H236.2V197.867C236.002 198.226 235.709 198.523 235.32 198.758C234.931 198.985 234.477 199.099 233.956 199.099C233.421 199.099 232.933 198.967 232.493 198.703C232.06 198.439 231.719 198.069 231.47 197.592C231.221 197.115 231.096 196.573 231.096 195.964ZM236.2 195.975C236.2 195.52 236.108 195.124 235.925 194.787C235.742 194.45 235.492 194.193 235.177 194.017C234.869 193.834 234.528 193.742 234.154 193.742C233.78 193.742 233.439 193.83 233.131 194.006C232.823 194.182 232.577 194.439 232.394 194.776C232.211 195.113 232.119 195.509 232.119 195.964C232.119 196.426 232.211 196.829 232.394 197.174C232.577 197.511 232.823 197.772 233.131 197.955C233.439 198.131 233.78 198.219 234.154 198.219C234.528 198.219 234.869 198.131 235.177 197.955C235.492 197.772 235.742 197.511 235.925 197.174C236.108 196.829 236.2 196.43 236.2 195.975ZM244.057 193.797V197.35C244.057 197.643 244.12 197.852 244.244 197.977C244.369 198.094 244.585 198.153 244.893 198.153H245.63V199H244.728C244.171 199 243.753 198.872 243.474 198.615C243.196 198.358 243.056 197.937 243.056 197.35V193.797H242.275V192.972H243.056V191.454H244.057V192.972H245.63V193.797H244.057ZM250.335 192.862C250.79 192.862 251.2 192.961 251.567 193.159C251.934 193.35 252.22 193.639 252.425 194.028C252.638 194.417 252.744 194.89 252.744 195.447V199H251.754V195.59C251.754 194.989 251.604 194.53 251.303 194.215C251.002 193.892 250.592 193.731 250.071 193.731C249.543 193.731 249.121 193.896 248.806 194.226C248.498 194.556 248.344 195.036 248.344 195.667V199H247.343V190.86H248.344V193.83C248.542 193.522 248.813 193.284 249.158 193.115C249.51 192.946 249.902 192.862 250.335 192.862ZM260.379 195.755C260.379 195.946 260.368 196.147 260.346 196.36H255.528C255.565 196.954 255.767 197.42 256.133 197.757C256.507 198.087 256.958 198.252 257.486 198.252C257.919 198.252 258.278 198.153 258.564 197.955C258.858 197.75 259.063 197.478 259.18 197.141H260.258C260.097 197.72 259.774 198.193 259.29 198.56C258.806 198.919 258.205 199.099 257.486 199.099C256.914 199.099 256.401 198.971 255.946 198.714C255.499 198.457 255.147 198.094 254.89 197.625C254.634 197.148 254.505 196.598 254.505 195.975C254.505 195.352 254.63 194.805 254.879 194.336C255.129 193.867 255.477 193.507 255.924 193.258C256.379 193.001 256.9 192.873 257.486 192.873C258.058 192.873 258.564 192.998 259.004 193.247C259.444 193.496 259.782 193.841 260.016 194.281C260.258 194.714 260.379 195.205 260.379 195.755ZM259.345 195.546C259.345 195.165 259.261 194.838 259.092 194.567C258.924 194.288 258.693 194.079 258.399 193.94C258.113 193.793 257.794 193.72 257.442 193.72C256.936 193.72 256.504 193.881 256.144 194.204C255.792 194.527 255.591 194.974 255.539 195.546H259.345ZM265.259 195.975C265.259 195.352 265.384 194.809 265.633 194.347C265.882 193.878 266.227 193.515 266.667 193.258C267.114 193.001 267.624 192.873 268.196 192.873C268.937 192.873 269.545 193.053 270.022 193.412C270.506 193.771 270.825 194.27 270.979 194.908H269.901C269.798 194.541 269.597 194.252 269.296 194.039C269.003 193.826 268.636 193.72 268.196 193.72C267.624 193.72 267.162 193.918 266.81 194.314C266.458 194.703 266.282 195.256 266.282 195.975C266.282 196.701 266.458 197.262 266.81 197.658C267.162 198.054 267.624 198.252 268.196 198.252C268.636 198.252 269.003 198.149 269.296 197.944C269.589 197.739 269.791 197.445 269.901 197.064H270.979C270.818 197.68 270.495 198.175 270.011 198.549C269.527 198.916 268.922 199.099 268.196 199.099C267.624 199.099 267.114 198.971 266.667 198.714C266.227 198.457 265.882 198.094 265.633 197.625C265.384 197.156 265.259 196.606 265.259 195.975ZM273.816 190.86V199H272.815V190.86H273.816ZM275.648 195.964C275.648 195.348 275.772 194.809 276.022 194.347C276.271 193.878 276.612 193.515 277.045 193.258C277.485 193.001 277.972 192.873 278.508 192.873C279.036 192.873 279.494 192.987 279.883 193.214C280.271 193.441 280.561 193.727 280.752 194.072V192.972H281.764V199H280.752V197.878C280.554 198.23 280.257 198.523 279.861 198.758C279.472 198.985 279.017 199.099 278.497 199.099C277.961 199.099 277.477 198.967 277.045 198.703C276.612 198.439 276.271 198.069 276.022 197.592C275.772 197.115 275.648 196.573 275.648 195.964ZM280.752 195.975C280.752 195.52 280.66 195.124 280.477 194.787C280.293 194.45 280.044 194.193 279.729 194.017C279.421 193.834 279.08 193.742 278.706 193.742C278.332 193.742 277.991 193.83 277.683 194.006C277.375 194.182 277.129 194.439 276.946 194.776C276.762 195.113 276.671 195.509 276.671 195.964C276.671 196.426 276.762 196.829 276.946 197.174C277.129 197.511 277.375 197.772 277.683 197.955C277.991 198.131 278.332 198.219 278.706 198.219C279.08 198.219 279.421 198.131 279.729 197.955C280.044 197.772 280.293 197.511 280.477 197.174C280.66 196.829 280.752 196.43 280.752 195.975ZM286.089 199.099C285.627 199.099 285.213 199.022 284.846 198.868C284.48 198.707 284.19 198.487 283.977 198.208C283.765 197.922 283.647 197.596 283.625 197.229H284.659C284.689 197.53 284.828 197.775 285.077 197.966C285.334 198.157 285.668 198.252 286.078 198.252C286.46 198.252 286.76 198.168 286.98 197.999C287.2 197.83 287.31 197.618 287.31 197.361C287.31 197.097 287.193 196.903 286.958 196.778C286.724 196.646 286.361 196.518 285.869 196.393C285.422 196.276 285.055 196.158 284.769 196.041C284.491 195.916 284.249 195.737 284.043 195.502C283.845 195.26 283.746 194.945 283.746 194.556C283.746 194.248 283.838 193.966 284.021 193.709C284.205 193.452 284.465 193.251 284.802 193.104C285.14 192.95 285.525 192.873 285.957 192.873C286.625 192.873 287.164 193.042 287.574 193.379C287.985 193.716 288.205 194.178 288.234 194.765H287.233C287.211 194.45 287.083 194.197 286.848 194.006C286.621 193.815 286.313 193.72 285.924 193.72C285.565 193.72 285.279 193.797 285.066 193.951C284.854 194.105 284.747 194.307 284.747 194.556C284.747 194.754 284.81 194.919 284.934 195.051C285.066 195.176 285.228 195.278 285.418 195.359C285.616 195.432 285.888 195.517 286.232 195.612C286.665 195.729 287.017 195.847 287.288 195.964C287.56 196.074 287.791 196.243 287.981 196.47C288.179 196.697 288.282 196.994 288.289 197.361C288.289 197.691 288.198 197.988 288.014 198.252C287.831 198.516 287.571 198.725 287.233 198.879C286.903 199.026 286.522 199.099 286.089 199.099ZM292.336 199.099C291.874 199.099 291.46 199.022 291.093 198.868C290.727 198.707 290.437 198.487 290.224 198.208C290.012 197.922 289.894 197.596 289.872 197.229H290.906C290.936 197.53 291.075 197.775 291.324 197.966C291.581 198.157 291.915 198.252 292.325 198.252C292.707 198.252 293.007 198.168 293.227 197.999C293.447 197.83 293.557 197.618 293.557 197.361C293.557 197.097 293.44 196.903 293.205 196.778C292.971 196.646 292.608 196.518 292.116 196.393C291.669 196.276 291.302 196.158 291.016 196.041C290.738 195.916 290.496 195.737 290.29 195.502C290.092 195.26 289.993 194.945 289.993 194.556C289.993 194.248 290.085 193.966 290.268 193.709C290.452 193.452 290.712 193.251 291.049 193.104C291.387 192.95 291.772 192.873 292.204 192.873C292.872 192.873 293.411 193.042 293.821 193.379C294.232 193.716 294.452 194.178 294.481 194.765H293.48C293.458 194.45 293.33 194.197 293.095 194.006C292.868 193.815 292.56 193.72 292.171 193.72C291.812 193.72 291.526 193.797 291.313 193.951C291.101 194.105 290.994 194.307 290.994 194.556C290.994 194.754 291.057 194.919 291.181 195.051C291.313 195.176 291.475 195.278 291.665 195.359C291.863 195.432 292.135 195.517 292.479 195.612C292.912 195.729 293.264 195.847 293.535 195.964C293.807 196.074 294.038 196.243 294.228 196.47C294.426 196.697 294.529 196.994 294.536 197.361C294.536 197.691 294.445 197.988 294.261 198.252C294.078 198.516 293.818 198.725 293.48 198.879C293.15 199.026 292.769 199.099 292.336 199.099Z" fill="#121212"></path>
<mask id="mask0_710_248" style="mask-type:alpha" maskUnits="userSpaceOnUse" x="84" y="177" width="36" height="36">
<circle cx="102" cy="195" r="18" fill="#C4C4C4"></circle>
</mask>
<g mask="url(#mask0_710_248)">
<rect x="82.0363" y="177" width="42.5455" height="58.2545" fill="url(#pattern0_710_248)"></rect>
</g>
<mask id="mask1_710_248" style="mask-type:alpha" maskUnits="userSpaceOnUse" x="53" y="177" width="36" height="36">
<circle cx="71" cy="195" r="18" fill="#C4C4C4"></circle>
</mask>
<g mask="url(#mask1_710_248)">
<rect x="47.7637" y="177" width="56.2909" height="40.5818" fill="url(#pattern1_710_248)"></rect>
</g>
<mask id="mask2_710_248" style="mask-type:alpha" maskUnits="userSpaceOnUse" x="22" y="177" width="36" height="36">
<circle cx="40" cy="195" r="18" fill="#C4C4C4"></circle>
</mask>
<g mask="url(#mask2_710_248)">
<rect x="14.8" y="174.382" width="53.6727" height="72" fill="url(#pattern2_710_248)"></rect>
</g>
<defs>
<pattern id="pattern0_710_248" patternContentUnits="objectBoundingBox" width="1" height="1">
<use xlink:href="#image0_710_248" transform="matrix(0.00328723 0 0 0.00239954 -0.520231 -0.000303312)"></use>
</pattern>
<pattern id="pattern1_710_248" patternContentUnits="objectBoundingBox" width="1" height="1">
<use xlink:href="#image1_710_248" transform="matrix(0.00159872 0 0 0.00239808 -0.00039968 0)"></use>
</pattern>
<pattern id="pattern2_710_248" patternContentUnits="objectBoundingBox" width="1" height="1">
<use xlink:href="#image2_710_248" transform="matrix(0.00324142 0 0 0.00240191 -0.116505 -0.000798722)"></use>
</pattern>
<clipPath id="clip0_710_248">
<rect width="9" height="9" fill="white" transform="translate(192 102)"></rect>
</clipPath>
<clipPath id="clip1_710_248">
<rect width="15" height="15" fill="white" transform="translate(22 99)"></rect>
</clipPath>
<clipPath id="clip2_710_248">
<rect width="15" height="15" fill="white" transform="translate(22 75)"></rect>
</clipPath>
<image id="image0_710_248" width="626" height="417" preserveAspectRatio="none"></image>
<image id="image1_710_248" width="626" height="417" preserveAspectRatio="none"></image>
<image id="image2_710_248" width="626" height="417" preserveAspectRatio="none"></image>
</defs>
</svg>