<svg width="1055" height="60" viewBox="0 0 1055 60" fill="none" xmlns="http://www.w3.org/2000/svg">
<path d="M0 8C0 3.58172 3.58172 0 8 0H1047C1051.42 0 1055 3.58172 1055 8V52C1055 56.4183 1051.42 60 1047 60H8.00003C3.58175 60 0 56.4183 0 52V8Z" fill="white"></path>
<rect x="47" y="12" width="607.013" height="36" rx="18" fill="#F4F7FC"></rect>
<path opacity="0.5" d="M105.576 34.084C105.024 34.084 104.528 33.988 104.088 33.796C103.656 33.596 103.316 33.324 103.068 32.98C102.82 32.628 102.692 32.224 102.684 31.768H103.848C103.888 32.16 104.048 32.492 104.328 32.764C104.616 33.028 105.032 33.16 105.576 33.16C106.096 33.16 106.504 33.032 106.8 32.776C107.104 32.512 107.256 32.176 107.256 31.768C107.256 31.448 107.168 31.188 106.992 30.988C106.816 30.788 106.596 30.636 106.332 30.532C106.068 30.428 105.712 30.316 105.264 30.196C104.712 30.052 104.268 29.908 103.932 29.764C103.604 29.62 103.32 29.396 103.08 29.092C102.848 28.78 102.732 28.364 102.732 27.844C102.732 27.388 102.848 26.984 103.08 26.632C103.312 26.28 103.636 26.008 104.052 25.816C104.476 25.624 104.96 25.528 105.504 25.528C106.288 25.528 106.928 25.724 107.424 26.116C107.928 26.508 108.212 27.028 108.276 27.676H107.076C107.036 27.356 106.868 27.076 106.572 26.836C106.276 26.588 105.884 26.464 105.396 26.464C104.94 26.464 104.568 26.584 104.28 26.824C103.992 27.056 103.848 27.384 103.848 27.808C103.848 28.112 103.932 28.36 104.1 28.552C104.276 28.744 104.488 28.892 104.736 28.996C104.992 29.092 105.348 29.204 105.804 29.332C106.356 29.484 106.8 29.636 107.136 29.788C107.472 29.932 107.76 30.16 108 30.472C108.24 30.776 108.36 31.192 108.36 31.72C108.36 32.128 108.252 32.512 108.036 32.872C107.82 33.232 107.5 33.524 107.076 33.748C106.652 33.972 106.152 34.084 105.576 34.084ZM116.467 30.46C116.467 30.668 116.455 30.888 116.431 31.12H111.175C111.215 31.768 111.435 32.276 111.835 32.644C112.243 33.004 112.735 33.184 113.311 33.184C113.783 33.184 114.175 33.076 114.487 32.86C114.807 32.636 115.031 32.34 115.159 31.972H116.335C116.159 32.604 115.807 33.12 115.279 33.52C114.751 33.912 114.095 34.108 113.311 34.108C112.687 34.108 112.127 33.968 111.631 33.688C111.143 33.408 110.759 33.012 110.479 32.5C110.199 31.98 110.059 31.38 110.059 30.7C110.059 30.02 110.195 29.424 110.467 28.912C110.739 28.4 111.119 28.008 111.607 27.736C112.103 27.456 112.671 27.316 113.311 27.316C113.935 27.316 114.487 27.452 114.967 27.724C115.447 27.996 115.815 28.372 116.071 28.852C116.335 29.324 116.467 29.86 116.467 30.46ZM115.339 30.232C115.339 29.816 115.247 29.46 115.063 29.164C114.879 28.86 114.627 28.632 114.307 28.48C113.995 28.32 113.647 28.24 113.263 28.24C112.711 28.24 112.239 28.416 111.847 28.768C111.463 29.12 111.243 29.608 111.187 30.232H115.339ZM118 30.688C118 30.016 118.136 29.428 118.408 28.924C118.68 28.412 119.052 28.016 119.524 27.736C120.004 27.456 120.536 27.316 121.12 27.316C121.696 27.316 122.196 27.44 122.62 27.688C123.044 27.936 123.36 28.248 123.568 28.624V27.424H124.672V34H123.568V32.776C123.352 33.16 123.028 33.48 122.596 33.736C122.172 33.984 121.676 34.108 121.108 34.108C120.524 34.108 119.996 33.964 119.524 33.676C119.052 33.388 118.68 32.984 118.408 32.464C118.136 31.944 118 31.352 118 30.688ZM123.568 30.7C123.568 30.204 123.468 29.772 123.268 29.404C123.068 29.036 122.796 28.756 122.452 28.564C122.116 28.364 121.744 28.264 121.336 28.264C120.928 28.264 120.556 28.36 120.22 28.552C119.884 28.744 119.616 29.024 119.416 29.392C119.216 29.76 119.116 30.192 119.116 30.688C119.116 31.192 119.216 31.632 119.416 32.008C119.616 32.376 119.884 32.66 120.22 32.86C120.556 33.052 120.928 33.148 121.336 33.148C121.744 33.148 122.116 33.052 122.452 32.86C122.796 32.66 123.068 32.376 123.268 32.008C123.468 31.632 123.568 31.196 123.568 30.7ZM128.11 28.492C128.302 28.116 128.574 27.824 128.926 27.616C129.286 27.408 129.722 27.304 130.234 27.304V28.432H129.946C128.722 28.432 128.11 29.096 128.11 30.424V34H127.018V27.424H128.11V28.492ZM131.586 30.7C131.586 30.02 131.722 29.428 131.994 28.924C132.266 28.412 132.642 28.016 133.122 27.736C133.61 27.456 134.166 27.316 134.79 27.316C135.598 27.316 136.262 27.512 136.782 27.904C137.31 28.296 137.658 28.84 137.826 29.536H136.65C136.538 29.136 136.318 28.82 135.99 28.588C135.67 28.356 135.27 28.24 134.79 28.24C134.166 28.24 133.662 28.456 133.278 28.888C132.894 29.312 132.702 29.916 132.702 30.7C132.702 31.492 132.894 32.104 133.278 32.536C133.662 32.968 134.166 33.184 134.79 33.184C135.27 33.184 135.67 33.072 135.99 32.848C136.31 32.624 136.53 32.304 136.65 31.888H137.826C137.65 32.56 137.298 33.1 136.77 33.508C136.242 33.908 135.582 34.108 134.79 34.108C134.166 34.108 133.61 33.968 133.122 33.688C132.642 33.408 132.266 33.012 131.994 32.5C131.722 31.988 131.586 31.388 131.586 30.7ZM143.047 27.304C143.543 27.304 143.991 27.412 144.391 27.628C144.791 27.836 145.103 28.152 145.327 28.576C145.559 29 145.675 29.516 145.675 30.124V34H144.595V30.28C144.595 29.624 144.431 29.124 144.103 28.78C143.775 28.428 143.327 28.252 142.759 28.252C142.183 28.252 141.723 28.432 141.379 28.792C141.043 29.152 140.875 29.676 140.875 30.364V34H139.783V25.12H140.875V28.36C141.091 28.024 141.387 27.764 141.763 27.58C142.147 27.396 142.575 27.304 143.047 27.304ZM154.95 30.688C154.95 30.016 155.086 29.428 155.358 28.924C155.63 28.412 156.002 28.016 156.474 27.736C156.954 27.456 157.486 27.316 158.07 27.316C158.646 27.316 159.146 27.44 159.57 27.688C159.994 27.936 160.31 28.248 160.518 28.624V27.424H161.622V34H160.518V32.776C160.302 33.16 159.978 33.48 159.546 33.736C159.122 33.984 158.626 34.108 158.058 34.108C157.474 34.108 156.946 33.964 156.474 33.676C156.002 33.388 155.63 32.984 155.358 32.464C155.086 31.944 154.95 31.352 154.95 30.688ZM160.518 30.7C160.518 30.204 160.418 29.772 160.218 29.404C160.018 29.036 159.746 28.756 159.402 28.564C159.066 28.364 158.694 28.264 158.286 28.264C157.878 28.264 157.506 28.36 157.17 28.552C156.834 28.744 156.566 29.024 156.366 29.392C156.166 29.76 156.066 30.192 156.066 30.688C156.066 31.192 156.166 31.632 156.366 32.008C156.566 32.376 156.834 32.66 157.17 32.86C157.506 33.052 157.878 33.148 158.286 33.148C158.694 33.148 159.066 33.052 159.402 32.86C159.746 32.66 160.018 32.376 160.218 32.008C160.418 31.632 160.518 31.196 160.518 30.7ZM167.171 27.304C167.971 27.304 168.619 27.548 169.115 28.036C169.611 28.516 169.859 29.212 169.859 30.124V34H168.779V30.28C168.779 29.624 168.615 29.124 168.287 28.78C167.959 28.428 167.511 28.252 166.943 28.252C166.367 28.252 165.907 28.432 165.563 28.792C165.227 29.152 165.059 29.676 165.059 30.364V34H163.967V27.424H165.059V28.36C165.275 28.024 165.567 27.764 165.935 27.58C166.311 27.396 166.723 27.304 167.171 27.304ZM177.807 27.424L173.847 37.096H172.719L174.015 33.928L171.363 27.424H172.575L174.639 32.752L176.679 27.424H177.807ZM180.736 28.324V32.2C180.736 32.52 180.804 32.748 180.94 32.884C181.076 33.012 181.312 33.076 181.648 33.076H182.452V34H181.468C180.86 34 180.404 33.86 180.1 33.58C179.796 33.3 179.644 32.84 179.644 32.2V28.324H178.792V27.424H179.644V25.768H180.736V27.424H182.452V28.324H180.736ZM187.54 27.304C188.036 27.304 188.484 27.412 188.884 27.628C189.284 27.836 189.596 28.152 189.82 28.576C190.052 29 190.168 29.516 190.168 30.124V34H189.088V30.28C189.088 29.624 188.924 29.124 188.596 28.78C188.268 28.428 187.82 28.252 187.252 28.252C186.676 28.252 186.216 28.432 185.872 28.792C185.536 29.152 185.368 29.676 185.368 30.364V34H184.276V25.12H185.368V28.36C185.584 28.024 185.88 27.764 186.256 27.58C186.64 27.396 187.068 27.304 187.54 27.304ZM193.015 26.356C192.807 26.356 192.631 26.284 192.487 26.14C192.343 25.996 192.271 25.82 192.271 25.612C192.271 25.404 192.343 25.228 192.487 25.084C192.631 24.94 192.807 24.868 193.015 24.868C193.215 24.868 193.383 24.94 193.519 25.084C193.663 25.228 193.735 25.404 193.735 25.612C193.735 25.82 193.663 25.996 193.519 26.14C193.383 26.284 193.215 26.356 193.015 26.356ZM193.543 27.424V34H192.451V27.424H193.543ZM199.108 27.304C199.908 27.304 200.556 27.548 201.052 28.036C201.548 28.516 201.796 29.212 201.796 30.124V34H200.716V30.28C200.716 29.624 200.552 29.124 200.224 28.78C199.896 28.428 199.448 28.252 198.88 28.252C198.304 28.252 197.844 28.432 197.5 28.792C197.164 29.152 196.996 29.676 196.996 30.364V34H195.904V27.424H196.996V28.36C197.212 28.024 197.504 27.764 197.872 27.58C198.248 27.396 198.66 27.304 199.108 27.304ZM206.792 27.316C207.36 27.316 207.856 27.44 208.28 27.688C208.712 27.936 209.032 28.248 209.24 28.624V27.424H210.344V34.144C210.344 34.744 210.216 35.276 209.96 35.74C209.704 36.212 209.336 36.58 208.856 36.844C208.384 37.108 207.832 37.24 207.2 37.24C206.336 37.24 205.616 37.036 205.04 36.628C204.464 36.22 204.124 35.664 204.02 34.96H205.1C205.22 35.36 205.468 35.68 205.844 35.92C206.22 36.168 206.672 36.292 207.2 36.292C207.8 36.292 208.288 36.104 208.664 35.728C209.048 35.352 209.24 34.824 209.24 34.144V32.764C209.024 33.148 208.704 33.468 208.28 33.724C207.856 33.98 207.36 34.108 206.792 34.108C206.208 34.108 205.676 33.964 205.196 33.676C204.724 33.388 204.352 32.984 204.08 32.464C203.808 31.944 203.672 31.352 203.672 30.688C203.672 30.016 203.808 29.428 204.08 28.924C204.352 28.412 204.724 28.016 205.196 27.736C205.676 27.456 206.208 27.316 206.792 27.316ZM209.24 30.7C209.24 30.204 209.14 29.772 208.94 29.404C208.74 29.036 208.468 28.756 208.124 28.564C207.788 28.364 207.416 28.264 207.008 28.264C206.6 28.264 206.228 28.36 205.892 28.552C205.556 28.744 205.288 29.024 205.088 29.392C204.888 29.76 204.788 30.192 204.788 30.688C204.788 31.192 204.888 31.632 205.088 32.008C205.288 32.376 205.556 32.66 205.892 32.86C206.228 33.052 206.6 33.148 207.008 33.148C207.416 33.148 207.788 33.052 208.124 32.86C208.468 32.66 208.74 32.376 208.94 32.008C209.14 31.632 209.24 31.196 209.24 30.7Z" fill="#121212"></path>
<g clip-path="url(#clip0_710_197)">
<path d="M74.8066 31.7579C75.5328 30.767 75.8581 29.5383 75.7173 28.3178C75.5765 27.0973 74.9801 25.975 74.0474 25.1753C73.1147 24.3756 71.9144 23.9577 70.6867 24.005C69.459 24.0523 68.2945 24.5614 67.426 25.4304C66.5576 26.2995 66.0493 27.4644 66.0029 28.6921C65.9564 29.9198 66.3753 31.1198 67.1756 32.052C67.9759 32.9841 69.0987 33.5797 70.3193 33.7196C71.5399 33.8595 72.7683 33.5334 73.7588 32.8064H73.7581C73.7806 32.8364 73.8046 32.8649 73.8316 32.8927L76.7191 35.7802C76.8597 35.9209 77.0505 36 77.2494 36.0001C77.4484 36.0002 77.6392 35.9212 77.7799 35.7806C77.9207 35.6399 77.9998 35.4492 77.9998 35.2502C77.9999 35.0513 77.9209 34.8604 77.7803 34.7197L74.8928 31.8322C74.866 31.8051 74.8372 31.78 74.8066 31.7572V31.7579ZM75.0001 28.875C75.0001 29.4167 74.8934 29.9531 74.6861 30.4535C74.4788 30.954 74.1749 31.4087 73.7919 31.7918C73.4088 32.1748 72.9541 32.4787 72.4536 32.686C71.9532 32.8933 71.4168 32.9999 70.8751 32.9999C70.3334 32.9999 69.797 32.8933 69.2965 32.686C68.796 32.4787 68.3413 32.1748 67.9582 31.7918C67.5752 31.4087 67.2714 30.954 67.0641 30.4535C66.8568 29.9531 66.7501 29.4167 66.7501 28.875C66.7501 27.7809 67.1847 26.7317 67.9582 25.9581C68.7318 25.1845 69.781 24.75 70.8751 24.75C71.9691 24.75 73.0183 25.1845 73.7919 25.9581C74.5655 26.7317 75.0001 27.7809 75.0001 28.875Z" fill="#252836"></path>
</g>
<path d="M870 24.25C870 23.4212 870.329 22.6263 870.915 22.0403C871.501 21.4542 872.296 21.125 873.125 21.125H891.875C892.704 21.125 893.499 21.4542 894.085 22.0403C894.671 22.6263 895 23.4212 895 24.25V36.75C895 37.5788 894.671 38.3737 894.085 38.9597C893.499 39.5458 892.704 39.875 891.875 39.875H873.125C872.296 39.875 871.501 39.5458 870.915 38.9597C870.329 38.3737 870 37.5788 870 36.75V24.25ZM873.125 22.6875C872.711 22.6875 872.313 22.8521 872.02 23.1451C871.727 23.4382 871.562 23.8356 871.562 24.25V24.5891L882.5 31.1516L893.438 24.5891V24.25C893.438 23.8356 893.273 23.4382 892.98 23.1451C892.687 22.8521 892.289 22.6875 891.875 22.6875H873.125ZM893.438 26.4109L886.003 30.8719L893.438 35.3656V26.4125V26.4109ZM893.384 37.1578L884.486 31.7812L882.5 32.9734L880.512 31.7812L871.616 37.1562C871.705 37.4882 871.901 37.7813 872.174 37.9904C872.447 38.1994 872.781 38.3126 873.125 38.3125H891.875C892.219 38.3127 892.553 38.1997 892.825 37.991C893.098 37.7823 893.295 37.4894 893.384 37.1578ZM871.562 35.3656L878.997 30.8719L871.562 26.4109V35.3641V35.3656Z" fill="#BDBDBD"></path>
<g clip-path="url(#clip1_710_197)">
<path d="M939.5 43C940.329 43 941.124 42.6708 941.71 42.0847C942.296 41.4987 942.625 40.7038 942.625 39.875H936.375C936.375 40.7038 936.704 41.4987 937.29 42.0847C937.876 42.6708 938.671 43 939.5 43ZM939.5 20.9969L938.255 21.2485C936.842 21.5363 935.572 22.3033 934.66 23.4197C933.748 24.5362 933.25 25.9334 933.25 27.375C933.25 28.3563 933.041 30.8078 932.533 33.2219C932.283 34.4203 931.945 35.6688 931.497 36.75H947.503C947.055 35.6688 946.719 34.4219 946.467 33.2219C945.959 30.8078 945.75 28.3563 945.75 27.375C945.749 25.9337 945.251 24.5368 944.339 23.4207C943.427 22.3046 942.158 21.5378 940.745 21.25L939.5 20.9953V20.9969ZM949.219 36.75C949.567 37.4485 949.97 38.0016 950.438 38.3125H928.562C929.03 38.0016 929.433 37.4485 929.781 36.75C931.188 33.9375 931.688 28.75 931.688 27.375C931.688 23.5938 934.375 20.4375 937.945 19.7172C937.924 19.5 937.947 19.2805 938.016 19.0731C938.084 18.8657 938.195 18.6749 938.341 18.5129C938.488 18.351 938.667 18.2216 938.866 18.133C939.066 18.0444 939.282 17.9987 939.5 17.9987C939.718 17.9987 939.934 18.0444 940.134 18.133C940.333 18.2216 940.512 18.351 940.659 18.5129C940.805 18.6749 940.916 18.8657 940.984 19.0731C941.053 19.2805 941.076 19.5 941.055 19.7172C942.821 20.0764 944.408 21.035 945.549 22.4305C946.689 23.826 947.312 25.5728 947.312 27.375C947.312 28.75 947.812 33.9375 949.219 36.75Z" fill="#828282"></path>
<circle cx="946.5" cy="24.5" r="3.5" fill="#EB5757"></circle>
</g>
<g clip-path="url(#clip2_710_197)">
<path d="M996 41C993.215 41 990.545 39.8938 988.575 37.9246C986.606 35.9555 985.5 33.2848 985.5 30.5C985.5 27.7152 986.606 25.0445 988.575 23.0754C990.545 21.1062 993.215 20 996 20C998.785 20 1001.46 21.1062 1003.42 23.0754C1005.39 25.0445 1006.5 27.7152 1006.5 30.5C1006.5 33.2848 1005.39 35.9555 1003.42 37.9246C1001.46 39.8938 998.785 41 996 41ZM996 42.5C999.183 42.5 1002.23 41.2357 1004.49 38.9853C1006.74 36.7348 1008 33.6826 1008 30.5C1008 27.3174 1006.74 24.2652 1004.49 22.0147C1002.23 19.7643 999.183 18.5 996 18.5C992.817 18.5 989.765 19.7643 987.515 22.0147C985.264 24.2652 984 27.3174 984 30.5C984 33.6826 985.264 36.7348 987.515 38.9853C989.765 41.2357 992.817 42.5 996 42.5Z" fill="#BDBDBD"></path>
<path d="M991.882 27.179C991.88 27.2274 991.888 27.2758 991.906 27.3211C991.923 27.3664 991.949 27.4076 991.983 27.4423C992.017 27.477 992.058 27.5044 992.102 27.5229C992.147 27.5413 992.195 27.5504 992.244 27.5495H993.481C993.688 27.5495 993.853 27.38 993.88 27.1745C994.015 26.1905 994.69 25.4735 995.893 25.4735C996.922 25.4735 997.864 25.988 997.864 27.2255C997.864 28.178 997.303 28.616 996.417 29.282C995.407 30.0155 994.608 30.872 994.665 32.2625L994.669 32.588C994.671 32.6864 994.711 32.7803 994.781 32.8493C994.851 32.9183 994.946 32.957 995.044 32.957H996.261C996.36 32.957 996.456 32.9175 996.526 32.8472C996.596 32.7768 996.636 32.6815 996.636 32.582V32.4245C996.636 31.3475 997.045 31.034 998.151 30.1955C999.064 29.501 1000.02 28.73 1000.02 27.1115C1000.02 24.845 998.103 23.75 996.007 23.75C994.107 23.75 992.025 24.635 991.882 27.179ZM994.218 35.8235C994.218 36.623 994.855 37.214 995.733 37.214C996.646 37.214 997.275 36.623 997.275 35.8235C997.275 34.9955 996.645 34.4135 995.731 34.4135C994.855 34.4135 994.218 34.9955 994.218 35.8235Z" fill="#BDBDBD"></path>
</g>
<defs>
<clipPath id="clip0_710_197">
<rect width="12" height="12" fill="white" transform="translate(66 24)"></rect>
</clipPath>
<clipPath id="clip1_710_197">
<rect width="25" height="25" fill="white" transform="translate(927 18)"></rect>
</clipPath>
<clipPath id="clip2_710_197">
<rect width="24" height="24" fill="white" transform="translate(984 18.5)"></rect>
</clipPath>
</defs>
</svg>